<svg xmlns="http://www.w3.org/2000/svg" xmlns:xlink="http://www.w3.org/1999/xlink" width="33.681" height="33.681" viewBox="0 0 33.681 33.681"><defs><clipPath id="a"><rect width="33.681" height="33.681" transform="translate(0 0)" fill="none" stroke="#fff" stroke-width="1.5"/></clipPath></defs><g transform="translate(0 0)"><g clip-path="url(#a)"><path d="M12.708,1H3.066A2.088,2.088,0,0,0,1,3.16v9.548a2.009,2.009,0,0,0,2.066,2.066h9.642a2.009,2.009,0,0,0,2.066-2.066V3.16A2.088,2.088,0,0,0,12.708,1Z" fill="none" stroke="#fff" stroke-miterlimit="10" stroke-width="1.5"/><path d="M30.615,1H20.972a2.088,2.088,0,0,0-2.066,2.16v9.548a2.009,2.009,0,0,0,2.066,2.066h9.643a2.009,2.009,0,0,0,2.066-2.066V3.16A2.088,2.088,0,0,0,30.615,1Z" fill="none" stroke="#fff" stroke-miterlimit="10" stroke-width="1.5"/><path d="M12.708,18.906H3.066A2.088,2.088,0,0,0,1,21.066v9.548A2.009,2.009,0,0,0,3.066,32.68h9.642a2.009,2.009,0,0,0,2.066-2.066V21.066A2.088,2.088,0,0,0,12.708,18.906Z" fill="none" stroke="#fff" stroke-miterlimit="10" stroke-width="1.5"/><path d="M30.615,18.906H20.972a2.088,2.088,0,0,0-2.066,2.16v9.548a2.009,2.009,0,0,0,2.066,2.066h9.643a2.009,2.009,0,0,0,2.066-2.066V21.066A2.088,2.088,0,0,0,30.615,18.906Z" fill="none" stroke="#fff" stroke-miterlimit="10" stroke-width="1.5"/><line x2="6.887" transform="translate(4.444 7.887)" fill="none" stroke="#fff" stroke-miterlimit="10" stroke-width="1.5"/><line x2="6.887" transform="translate(4.444 25.794)" fill="none" stroke="#fff" stroke-miterlimit="10" stroke-width="1.5"/><line x2="6.887" transform="translate(22.35 25.794)" fill="none" stroke="#fff" stroke-miterlimit="10" stroke-width="1.5"/><line x2="1.377" transform="translate(25.105 23.039)" fill="none" stroke="#fff" stroke-miterlimit="10" stroke-width="1.5"/><line x2="1.377" transform="translate(25.105 28.548)" fill="none" stroke="#fff" stroke-miterlimit="10" stroke-width="1.5"/><line y2="6.887" transform="translate(7.887 4.444)" fill="none" stroke="#fff" stroke-miterlimit="10" stroke-width="1.5"/><line x2="5.559" y2="5.51" transform="translate(23.039 5.132)" fill="none" stroke="#fff" stroke-miterlimit="10" stroke-width="1.5"/><line x1="5.559" y2="5.461" transform="translate(23.038 5.132)" fill="none" stroke="#fff" stroke-miterlimit="10" stroke-width="1.5"/></g></g></svg>