<svg id="Group_22107" data-name="Group 22107" xmlns="http://www.w3.org/2000/svg" xmlns:xlink="http://www.w3.org/1999/xlink" width="184.48" height="90.089" viewBox="0 0 184.48 90.089">
  <defs>
    <clipPath id="clip-path">
      <rect id="Rectangle_3399" data-name="Rectangle 3399" width="184.48" height="90.089" fill="none"/>
    </clipPath>
  </defs>
  <rect id="Rectangle_3393" data-name="Rectangle 3393" width="182.054" height="87.662" transform="translate(1.213 1.213)" fill="#fff"/>
  <path id="Path_20050" data-name="Path 20050" d="M2.427,2.428H182.055V87.662H2.427ZM0,0V90.089H184.48V0Z" fill="#95a0a9"/>
  <rect id="Rectangle_3394" data-name="Rectangle 3394" width="56.768" height="60.016" transform="translate(123.139 4.82)" fill="#af151a"/>
  <rect id="Rectangle_3395" data-name="Rectangle 3395" width="118.328" height="60.016" transform="translate(4.756 4.82)" fill="#231f20"/>
  <rect id="Rectangle_3396" data-name="Rectangle 3396" width="175.188" height="20.111" transform="translate(4.758 64.618)" fill="#fdbb30"/>
  <g id="Group_22106" data-name="Group 22106" transform="translate(0 0)">
    <g id="Group_22105" data-name="Group 22105" clip-path="url(#clip-path)">
      <path id="Path_20051" data-name="Path 20051" d="M35.742,54.053c-17.352,0-25.254-11.493-25.254-22.172,0-10.715,7.9-22.249,25.254-22.249,1.521,0,3.044.077,4.661.236l1.13.111-.288,4.638L40.032,14.5c-1.522-.146-2.966-.223-4.29-.223-14.271,0-20.771,9.126-20.771,17.605,0,8.443,6.5,17.53,20.771,17.53,1.328,0,2.771-.075,4.289-.224l1.214-.119.288,4.64-1.13.11c-1.6.158-3.13.234-4.661.234" transform="translate(4.688 4.305)" fill="#fff"/>
      <path id="Path_20052" data-name="Path 20052" d="M40.446,53.331H35.961V10.053h30.48V14.7h-26V26.24H61.754v4.643H40.446Z" transform="translate(16.074 4.493)" fill="#fff"/>
      <path id="Path_20053" data-name="Path 20053" d="M58.855,55.591,54.821,53.5,70.971,7.3,87.122,53.5l-4.015,2.079-3.371-9.34H62.079ZM63.679,41.6H78.062l-7.1-20.8Z" transform="translate(24.503 3.26)" fill="#fff"/>
      <path id="Path_20054" data-name="Path 20054" d="M120.852,26.642a3.319,3.319,0,1,0-3.319,3.316,3.319,3.319,0,0,0,3.319-3.316m-6.338.03a2.565,2.565,0,1,1,2.565,2.563,2.569,2.569,0,0,1-2.565-2.563m-5.336,12.911-.515,3.759c-.786-2.437-4.565-3.37-17.491-4.352l.1-.375,17.919.86,0,.027m-3.431-1.431c9.635.278,14.015-3.138,5.619-10.272,9.632,6.762,3.165,11.778-5.674,10.346Zm8.015,4.51,2.793,11.447h-3.623L112.5,43.143c.436-.171.861-.362,1.276-.561m-10.654-1.425-2.236,3.133a4.731,4.731,0,0,0,1.071.343,18.637,18.637,0,0,0,10.191-1.325l.246,10.722H96.511a.839.839,0,0,0-.728.92V55.1a.843.843,0,0,0,.728.922h34.15a.844.844,0,0,0,.729-.922v-.149a.84.84,0,0,0-.729-.92H119.945c-1.869-.414-3.92-5.171-6.037-11.515,8.732-4.316,13.694-14.642,5.072-23.819l1.441-1.676-1.091-.935,5.293-6.148-2.516-2.163-5.292,6.147-1.088-.939L104.085,26.5l.809.7-.865,1,.589.5-2.359,2.741,1.9,1.635,2.353-2.739.592.5.865-1.007.81.7L118.973,18.7c8.838,11.42-.974,26.668-16.549,25.525-.524-.039-.136-1.511.695-2.726Zm18.9-33.065,1.952,1.678-5.1,5.921-1.951-1.678Zm-18.326,24.4-1.062-.912,2.262-2.631,1.064.913Zm4.684-2.73L104.47,26.4l11.208-13.02,3.913,3.367ZM131.012,54.84c0,.25-.318.46-.71.46H96.944c-.392,0-.71-.21-.71-.46v-.077c0-.253.318-.462.71-.462H130.3c.392,0,.71.208.71.462Z" transform="translate(40.751 3.474)" fill="#fff"/>
      <path id="Path_20055" data-name="Path 20055" d="M14.517,56.875c-.313.029-.611.043-.909.043-3.211,0-4.817-1.948-4.817-3.908s1.606-3.92,4.817-3.92c.3,0,.6.013.909.042l-.029.427c-.313-.029-.611-.043-.88-.043-2.927,0-4.39,1.762-4.39,3.494s1.463,3.481,4.39,3.481c.269,0,.567-.014.88-.042Z" transform="translate(3.929 21.942)" fill="#231f20"/>
      <path id="Path_20056" data-name="Path 20056" d="M14.969,55.326l-.611,1.65-.382-.185,2.939-7.828,2.942,7.828-.385.185-.638-1.65Zm.158-.425h3.536l-1.748-4.759Z" transform="translate(6.247 21.884)" fill="#231f20"/>
      <path id="Path_20057" data-name="Path 20057" d="M19.52,55.137a2.374,2.374,0,0,0,2.344,1.35c1.379,0,2.528-.654,2.528-1.89,0-1.065-1.463-1.208-2.471-1.378-1.108-.185-2.869-.355-2.869-1.8,0-1.577,1.421-2.315,2.955-2.315a2.788,2.788,0,0,1,2.756,1.634l-.383.171a2.44,2.44,0,0,0-2.373-1.379c-1.421,0-2.528.625-2.528,1.89,0,.994,1.236,1.192,2.457,1.378,1.292.2,2.884.356,2.884,1.8,0,1.577-1.336,2.317-2.955,2.317a2.7,2.7,0,0,1-2.742-1.592Z" transform="translate(8.515 21.946)" fill="#231f20"/>
      <path id="Path_20058" data-name="Path 20058" d="M29.641,56.783V52.606H24.867v4.177h-.427V49.168h.427v3.013h4.774V49.168h.425v7.615Z" transform="translate(10.924 21.976)" fill="#231f20"/>
      <path id="Path_20059" data-name="Path 20059" d="M29.87,56.888V48.933l3.665,6.862L37.2,48.933v7.955h-.425V50.623L33.535,56.7,30.3,50.623v6.265Z" transform="translate(13.351 21.871)" fill="#231f20"/>
      <path id="Path_20060" data-name="Path 20060" d="M37.314,55.326l-.611,1.65-.383-.185,2.94-7.828L42.2,56.79l-.385.185-.638-1.65Zm.156-.425h3.538L39.26,50.141Z" transform="translate(16.234 21.884)" fill="#231f20"/>
      <path id="Path_20061" data-name="Path 20061" d="M41.769,56.884V48.942l5.5,7.047v-6.72h.427v7.942l-5.5-7.047v6.72Z" transform="translate(18.67 21.875)" fill="#231f20"/>
      <path id="Path_20062" data-name="Path 20062" d="M50.84,56.783V49.168h5.626v.427h-5.2v2.586h4.263v.425H51.266v4.177Z" transform="translate(22.724 21.976)" fill="#231f20"/>
      <path id="Path_20063" data-name="Path 20063" d="M56.538,49.168v7.189H61.2v.427H56.113V49.168Z" transform="translate(25.081 21.977)" fill="#231f20"/>
      <path id="Path_20064" data-name="Path 20064" d="M61.378,49.168V54.04a2.545,2.545,0,0,0,5.086,0V49.168h.425V54.04a2.97,2.97,0,0,1-5.937,0V49.168Z" transform="translate(27.244 21.976)" fill="#231f20"/>
      <rect id="Rectangle_3397" data-name="Rectangle 3397" width="0.425" height="7.615" transform="translate(96.337 71.145)" fill="#231f20"/>
      <path id="Path_20065" data-name="Path 20065" d="M74.362,52.982c0,1.946-1.6,3.879-4.817,3.879-.311,0-.723-.014-1.092-.043V49.146c.369-.027.781-.056,1.092-.056,3.212,0,4.817,1.932,4.817,3.892m-.427,0c0-1.732-1.463-3.467-4.39-3.467-.2,0-.44.014-.667.029v6.877c.242.013.469.013.667.013,2.927,0,4.39-1.719,4.39-3.452" transform="translate(30.597 21.942)" fill="#231f20"/>
      <path id="Path_20066" data-name="Path 20066" d="M74.253,55.137a2.373,2.373,0,0,0,2.344,1.35c1.379,0,2.529-.654,2.529-1.89,0-1.065-1.463-1.208-2.473-1.378-1.108-.185-2.869-.355-2.869-1.8,0-1.577,1.421-2.315,2.955-2.315A2.788,2.788,0,0,1,79.5,50.734l-.383.171a2.439,2.439,0,0,0-2.373-1.379c-1.421,0-2.529.625-2.529,1.89,0,.994,1.237,1.192,2.458,1.378,1.292.2,2.884.356,2.884,1.8,0,1.577-1.336,2.317-2.955,2.317a2.7,2.7,0,0,1-2.742-1.592Z" transform="translate(32.979 21.946)" fill="#231f20"/>
      <path id="Path_20067" data-name="Path 20067" d="M83.448,55.326l-.612,1.65-.383-.185,2.942-7.828,2.94,7.828-.383.185-.64-1.65ZM83.6,54.9h3.538l-1.748-4.759Z" transform="translate(36.854 21.884)" fill="#231f20"/>
      <path id="Path_20068" data-name="Path 20068" d="M87.9,56.884V48.942l5.5,7.047v-6.72h.425v7.942l-5.5-7.047v6.72Z" transform="translate(39.29 21.875)" fill="#231f20"/>
      <path id="Path_20069" data-name="Path 20069" d="M94.374,55.326l-.612,1.65-.382-.185,2.942-7.828L99.26,56.79l-.382.185-.641-1.65Zm.156-.425h3.538l-1.747-4.759Z" transform="translate(41.738 21.884)" fill="#231f20"/>
      <path id="Path_20070" data-name="Path 20070" d="M99.254,49.168v7.189h4.661v.427H98.828V49.168Z" transform="translate(44.174 21.977)" fill="#231f20"/>
      <path id="Path_20071" data-name="Path 20071" d="M105.081,56.831V53.094L102.1,49.358l.314-.269,2.882,3.594,2.929-3.622.311.3-3.026,3.736v3.738Z" transform="translate(45.635 21.929)" fill="#231f20"/>
      <path id="Path_20072" data-name="Path 20072" d="M108.261,55.137a2.373,2.373,0,0,0,2.344,1.35c1.379,0,2.529-.654,2.529-1.89,0-1.065-1.463-1.208-2.473-1.378-1.108-.185-2.869-.355-2.869-1.8,0-1.577,1.421-2.315,2.955-2.315a2.788,2.788,0,0,1,2.756,1.634l-.383.171a2.439,2.439,0,0,0-2.373-1.379c-1.421,0-2.529.625-2.529,1.89,0,.994,1.237,1.192,2.458,1.378,1.294.2,2.884.356,2.884,1.8,0,1.577-1.336,2.317-2.955,2.317a2.7,2.7,0,0,1-2.742-1.592Z" transform="translate(48.18 21.946)" fill="#231f20"/>
      <rect id="Rectangle_3398" data-name="Rectangle 3398" width="0.425" height="7.615" transform="translate(163.828 71.145)" fill="#231f20"/>
      <path id="Path_20073" data-name="Path 20073" d="M115.428,55.137a2.373,2.373,0,0,0,2.344,1.35c1.379,0,2.529-.654,2.529-1.89,0-1.065-1.463-1.208-2.473-1.378-1.108-.185-2.869-.355-2.869-1.8,0-1.577,1.421-2.315,2.955-2.315a2.788,2.788,0,0,1,2.756,1.634l-.383.171a2.439,2.439,0,0,0-2.373-1.379c-1.421,0-2.529.625-2.529,1.89,0,.994,1.237,1.192,2.458,1.378,1.292.2,2.884.356,2.884,1.8,0,1.577-1.336,2.317-2.955,2.317a2.7,2.7,0,0,1-2.742-1.592Z" transform="translate(51.384 21.946)" fill="#231f20"/>
    </g>
  </g>
</svg>
