<?xml version="1.0" encoding="utf-8"?>
<!-- Generator: Adobe Illustrator 25.0.0, SVG Export Plug-In . SVG Version: 6.00 Build 0)  -->
<svg version="1.1" id="Layer_1" xmlns="http://www.w3.org/2000/svg" xmlns:xlink="http://www.w3.org/1999/xlink" x="0px" y="0px"
	 viewBox="0 0 1280 1024" style="enable-background:new 0 0 1280 1024;" xml:space="preserve">
<style type="text/css">
	.st0{fill:#EF5120;}
</style>
<path class="st0" d="M1061.28,787.36h-8.51V569.23c0-17.29-12.93-31.34-28.83-31.34H694.04c-15.9,0-28.83,14.05-28.83,31.34v218.15
	h-7.74c-6.47,0-11.72,5.7-11.72,12.73v31.55c0,17.29,12.93,31.34,28.83,31.34h369.58c15.9,0,28.83-14.05,28.83-31.34v-31.55
	C1073,793.06,1067.76,787.36,1061.28,787.36z M688.64,569.23c0-3.18,2.47-5.87,5.4-5.87h329.89c2.92,0,5.4,2.69,5.4,5.87v218.15
	H902.56c-6.47,0-11.72,5.7-11.72,12.73v0.79h-63.7v-0.79c0-7.04-5.24-12.73-11.72-12.73H688.64L688.64,569.23L688.64,569.23z
	 M1049.57,831.64c0,3.18-2.47,5.87-5.4,5.87H674.59c-2.92,0-5.4-2.69-5.4-5.87v-18.81h134.5v0.79c0,7.04,5.24,12.73,11.72,12.73
	h87.13c6.47,0,11.72-5.7,11.72-12.73v-0.79h135.28v18.81H1049.57z M661.04,428.47V197.42c0-23.95-17.91-43.42-39.94-43.42H279.94
	c-22.03,0-39.94,19.47-39.94,43.42v231.05c0,23.95,17.91,43.42,39.94,43.42h158.85v43.15h-77.65c-6.47,0-11.72,5.7-11.72,12.73
	c0,7.04,5.24,12.73,11.72,12.73h178.75c6.47,0,11.72-5.7,11.72-12.73c0-7.04-5.24-12.73-11.72-12.73h-77.65v-43.15h158.85
	C643.11,471.88,661.04,452.42,661.04,428.47z M637.59,428.47c0,9.89-7.41,17.95-16.51,17.95H279.94c-9.1,0-16.51-8.05-16.51-17.95
	V197.42c0-9.89,7.41-17.95,16.51-17.95h341.14c9.1,0,16.51,8.05,16.51,17.95V428.47z M739.18,238.59h195.24v181.47l-8.79-9.56
	c-4.57-4.97-11.99-4.97-16.58,0c-4.57,4.97-4.57,13.04,0,18.02l28.8,31.3c0.03,0.04,0.07,0.06,0.09,0.09
	c0.24,0.26,0.5,0.51,0.76,0.75c0.02,0.02,0.02,0.02,0.03,0.04c0.14,0.11,0.28,0.21,0.4,0.32c0.16,0.13,0.31,0.26,0.48,0.39
	c0.17,0.13,0.35,0.23,0.52,0.34c0.16,0.09,0.31,0.21,0.47,0.3c0.17,0.09,0.36,0.19,0.54,0.28s0.33,0.17,0.5,0.24
	c0.17,0.08,0.35,0.15,0.54,0.21c0.19,0.08,0.36,0.15,0.55,0.21c0.17,0.06,0.36,0.09,0.54,0.15c0.19,0.06,0.38,0.11,0.57,0.15
	c0.21,0.04,0.42,0.08,0.62,0.09c0.17,0.02,0.35,0.06,0.52,0.08c0.38,0.04,0.78,0.06,1.16,0.06s0.78-0.02,1.16-0.06
	c0.17-0.02,0.35-0.06,0.52-0.08c0.19-0.04,0.38-0.06,0.57-0.09c0.02,0,0.03-0.02,0.05-0.02c0.19-0.04,0.4-0.09,0.59-0.15
	c0.17-0.06,0.35-0.09,0.52-0.15c0.19-0.06,0.38-0.13,0.55-0.21c0.17-0.08,0.35-0.13,0.52-0.21c0.17-0.08,0.35-0.17,0.5-0.26
	c0.17-0.09,0.36-0.17,0.54-0.28c0.16-0.09,0.31-0.21,0.47-0.3c0.17-0.11,0.35-0.23,0.52-0.34c0.17-0.13,0.33-0.26,0.48-0.39
	c0.14-0.11,0.29-0.23,0.43-0.36c0.26-0.24,0.52-0.49,0.76-0.75c0.03-0.04,0.07-0.06,0.09-0.09l0,0l28.78-31.28
	c4.57-4.97,4.57-13.04,0-18.02c-4.57-4.97-11.99-4.97-16.58,0l-8.79,9.56V225.86c0-7.04-5.24-12.73-11.72-12.73H739.18
	c-6.47,0-11.72,5.7-11.72,12.73C727.46,232.89,732.7,238.59,739.18,238.59z M568.79,801.75H373.55V620.28l8.79,9.56
	c2.28,2.48,5.28,3.72,8.29,3.72c2.99,0,6.01-1.24,8.29-3.72c4.57-4.97,4.57-13.04,0-18.02l-28.8-31.3
	c-0.03-0.04-0.05-0.06-0.09-0.09c-0.24-0.26-0.5-0.51-0.76-0.75c-0.09-0.08-0.19-0.15-0.28-0.23c-0.05-0.04-0.1-0.08-0.16-0.11
	c-0.17-0.13-0.33-0.26-0.5-0.4c-0.17-0.11-0.33-0.23-0.5-0.34c-0.16-0.11-0.31-0.21-0.48-0.3c-0.17-0.09-0.35-0.19-0.52-0.26
	c-0.17-0.09-0.35-0.19-0.52-0.26c-0.16-0.08-0.33-0.13-0.48-0.19c-0.19-0.08-0.4-0.15-0.59-0.23c-0.16-0.06-0.31-0.09-0.48-0.13
	c-0.21-0.06-0.42-0.11-0.64-0.17c-0.17-0.04-0.36-0.06-0.54-0.09c-0.21-0.04-0.4-0.08-0.61-0.09c-0.29-0.04-0.59-0.04-0.88-0.06
	c-0.09,0-0.17-0.02-0.26-0.02s-0.17,0.02-0.26,0.02c-0.29,0-0.59,0.02-0.88,0.06c-0.21,0.02-0.4,0.06-0.61,0.09
	c-0.17,0.04-0.36,0.06-0.54,0.09c-0.21,0.04-0.42,0.11-0.64,0.17c-0.16,0.04-0.33,0.08-0.48,0.13c-0.21,0.08-0.4,0.15-0.59,0.23
	c-0.17,0.06-0.33,0.13-0.48,0.19c-0.17,0.08-0.35,0.17-0.52,0.26c-0.17,0.09-0.35,0.17-0.52,0.26c-0.17,0.09-0.33,0.21-0.48,0.3
	c-0.17,0.11-0.35,0.21-0.5,0.34c-0.17,0.13-0.33,0.26-0.5,0.4c-0.14,0.11-0.29,0.23-0.43,0.34c-0.26,0.24-0.52,0.49-0.76,0.75
	c-0.03,0.04-0.05,0.06-0.09,0.09l-28.78,31.3c-4.57,4.98-4.57,13.04,0,18.02c2.28,2.48,5.28,3.72,8.29,3.72
	c2.99,0,6.01-1.24,8.29-3.72l8.79-9.56v194.2c0,7.04,5.24,12.73,11.72,12.73h206.94c6.47,0,11.72-5.7,11.72-12.73
	C580.5,807.45,575.26,801.75,568.79,801.75z"/>
</svg>
