<svg xmlns="http://www.w3.org/2000/svg" width="22.609" height="23.058" viewBox="0 0 22.609 23.058">
  <g id="Group_19231" data-name="Group 19231" transform="translate(0.625 0.625)">
    <path id="Path_7058" data-name="Path 7058" d="M17.937-44.094h2.41A2.307,2.307,0,0,1,22.654-41.8v15.4a2.308,2.308,0,0,1-2.307,2.294H3.6A2.307,2.307,0,0,1,1.3-26.4V-41.8A2.307,2.307,0,0,1,3.6-44.094H6.183" transform="translate(-1.295 45.915)" fill="none" stroke="#fff" stroke-linecap="round" stroke-linejoin="round" stroke-width="1.25"/>
    <path id="Path_7059" data-name="Path 7059" d="M7.627-30.9l1.438,2.213,2.544-4.093" transform="translate(-4.179 40.625)" fill="none" stroke="#fff" stroke-linecap="round" stroke-linejoin="round" stroke-width="1.25"/>
    <line id="Line_173" data-name="Line 173" x2="8.85" transform="translate(9.406 10.776)" fill="none" stroke="#fff" stroke-linecap="round" stroke-linejoin="round" stroke-width="1.25"/>
    <path id="Path_7060" data-name="Path 7060" d="M7.627-18.7l1.438,2.212,2.544-4.093" transform="translate(-4.179 35.067)" fill="none" stroke="#fff" stroke-linecap="round" stroke-linejoin="round" stroke-width="1.25"/>
    <line id="Line_174" data-name="Line 174" x2="8.85" transform="translate(9.406 17.23)" fill="none" stroke="#fff" stroke-linecap="round" stroke-linejoin="round" stroke-width="1.25"/>
    <rect id="Rectangle_269" data-name="Rectangle 269" width="10.684" height="4.78" transform="translate(5.338 0)" fill="none" stroke="#fff" stroke-linecap="round" stroke-linejoin="round" stroke-width="1.25"/>
  </g>
</svg>
