<?xml version="1.0" encoding="utf-8"?>
<!-- Generator: Adobe Illustrator 25.0.0, SVG Export Plug-In . SVG Version: 6.00 Build 0)  -->
<svg version="1.1" id="Layer_1" xmlns="http://www.w3.org/2000/svg" xmlns:xlink="http://www.w3.org/1999/xlink" x="0px" y="0px"
	 viewBox="0 0 1280 1024" style="enable-background:new 0 0 1280 1024;" xml:space="preserve">
<style type="text/css">
	.st0{fill:none;stroke:#EF5320;stroke-width:20;stroke-linejoin:round;stroke-miterlimit:10;}
</style>
<g>
	<polyline class="st0" points="219.67,544.17 354.22,544.17 409.16,453.55 464.11,544.17 552.22,544.17 586.14,595.94 643.3,358.24 
		690.42,636 730.81,544.17 813.69,544.17 873.23,440.87 932.78,544.17 1097.44,544.17 	"/>
	<path class="st0" d="M370.07,316.08"/>
	<polyline class="st0" points="944.56,593.61 643.5,890 343.23,590.15 	"/>
	<path class="st0" d="M292.21,544.17l-63.27-62.29l-0.09,0.07c-38.18-47.62-57.53-110.54-47-177.89
		c15.6-99.75,99.63-178.99,201.46-190.69c106.35-12.22,220.51,58.98,260.19,146.72c39.69-87.74,153.84-158.94,260.2-146.72
		c101.82,11.7,185.86,90.94,201.46,190.69c10.54,67.35-8.82,130.28-47,177.89l-0.09-0.07l-63.27,62.29"/>
	<path class="st0" d="M243.79,340.2c-0.09-9.04,0.56-18.26,2.02-27.59c11.12-71.06,70.98-127.52,143.52-135.85
		c12.91-1.48,25.99-1.24,38.94,0.49"/>
</g>
</svg>
