<svg id="Group_19423" data-name="Group 19423" xmlns="http://www.w3.org/2000/svg" xmlns:xlink="http://www.w3.org/1999/xlink" width="27.967" height="40.049" viewBox="0 0 27.967 40.049">
  <defs>
    <clipPath id="clip-path">
      <rect id="Rectangle_627" data-name="Rectangle 627" width="27.967" height="40.049" fill="rgba(0,0,0,0)" stroke="#fff" stroke-width="1.5"/>
    </clipPath>
  </defs>
  <g id="Group_19422" data-name="Group 19422" transform="translate(0 0)" clip-path="url(#clip-path)">
    <path id="Path_7224" data-name="Path 7224" d="M18.712,36.273a1.695,1.695,0,1,0-1.695,1.695A1.695,1.695,0,0,0,18.712,36.273ZM6,25.256V27.8l4.237,1.695L11.932,27.8" transform="translate(-0.915 -3.852)" fill="rgba(0,0,0,0)" stroke="#fff" stroke-miterlimit="10" stroke-width="1.5"/>
    <path id="Path_7225" data-name="Path 7225" d="M12.237,40.583V36.345a5.085,5.085,0,0,1,9.806-1.893c.235.585,2.059,6.131,2.059,6.131H25.8a2.469,2.469,0,0,1,2.542,2.538v.847H8v-.847a2.469,2.469,0,0,1,2.542-2.538Z" transform="translate(-1.22 -4.767)" fill="rgba(0,0,0,0)" stroke="#fff" stroke-miterlimit="10" stroke-width="1.5"/>
    <line id="Line_229" data-name="Line 229" x2="11.017" transform="translate(0 32.422)" fill="none" stroke="#fff" stroke-miterlimit="10" stroke-width="1.5"/>
    <path id="Path_7226" data-name="Path 7226" d="M19.56,10.651,14.475,23.363,6,19.973,11.085,7.261" transform="translate(-0.915 -1.107)" fill="rgba(0,0,0,0)" stroke="#fff" stroke-miterlimit="10" stroke-width="1.5"/>
    <path id="Path_7227" data-name="Path 7227" d="M19.934,16.426A9.324,9.324,0,0,1,24.112,32.89" transform="translate(-3.04 -2.505)" fill="rgba(0,0,0,0)" stroke="#fff" stroke-miterlimit="10" stroke-width="1.5"/>
    <path id="Path_7228" data-name="Path 7228" d="M15.788,8.564l3.435,1.358s3.657,1.89,5.027-2.729L9.855,1.256c-2.436,4.157,1.435,5.53,1.435,5.53l1.955.773" transform="translate(-1.38 -0.192)" fill="rgba(0,0,0,0)" stroke="#fff" stroke-miterlimit="10" stroke-width="1.5"/>
    <line id="Line_230" data-name="Line 230" x1="3.39" transform="translate(19.492 35.812)" fill="none" stroke="#fff" stroke-miterlimit="10" stroke-width="1.5"/>
    <line id="Line_231" data-name="Line 231" x1="2.542" transform="translate(11.018 35.812)" fill="none" stroke="#fff" stroke-miterlimit="10" stroke-width="1.5"/>
  </g>
</svg>
