<svg id="icon-qbot-supplier" xmlns="http://www.w3.org/2000/svg" xmlns:xlink="http://www.w3.org/1999/xlink" width="78" height="74.886" viewBox="0 0 78 74.886">
  <defs>
    <clipPath id="clip-path">
      <rect id="Rectangle_2226" data-name="Rectangle 2226" width="78" height="74.886" fill="none"/>
    </clipPath>
  </defs>
  <g id="Group_22064" data-name="Group 22064" clip-path="url(#clip-path)">
    <path id="Path_19789" data-name="Path 19789" d="M38.442,86.126v24.956a19.187,19.187,0,0,0,38.374,0V86.126Z" transform="translate(-24.719 -55.381)" fill="#f15a29"/>
    <rect id="Rectangle_2221" data-name="Rectangle 2221" width="24.951" height="9.429" transform="translate(20.451 48.894)" fill="#fff"/>
    <rect id="Rectangle_2222" data-name="Rectangle 2222" width="24.951" height="9.429" transform="translate(20.451 36.827)" fill="#fff"/>
    <path id="Path_19790" data-name="Path 19790" d="M182.658,57.664l-4.631-.544-.27,2.316a2.85,2.85,0,0,1-5.661-.66l.273-2.317-4.63-.542-.271,2.314a7.51,7.51,0,1,0,14.917,1.75Z" transform="translate(-107.653 -35.956)" fill="#2baae1"/>
    <path id="Path_19791" data-name="Path 19791" d="M181.953,144.054a7.518,7.518,0,0,0,10.342,2.42l1.981-1.228-2.458-3.961-1.98,1.229a2.849,2.849,0,1,1-3-4.841l1.98-1.229-2.459-3.961-1.98,1.229a7.519,7.519,0,0,0-2.421,10.343" transform="translate(-116.276 -85.19)" fill="#2baae1"/>
    <rect id="Rectangle_2223" data-name="Rectangle 2223" width="6.216" height="8.379" transform="translate(38.429)" fill="#f15a29"/>
    <path id="Path_19792" data-name="Path 19792" d="M39.067,33.44V48.624H38.93v.082H77.314V33.44Zm11.686,11.7a4.089,4.089,0,1,1,4.089-4.088,4.09,4.09,0,0,1-4.089,4.088" transform="translate(-25.033 -21.503)" fill="#2baae1"/>
    <path id="Path_19793" data-name="Path 19793" d="M89.422,111.3l-3.242,3.239L82.938,111.3l3.242-3.244Z" transform="translate(-53.331 -69.482)" fill="#fec214"/>
    <path id="Path_19794" data-name="Path 19794" d="M188.727,31.654l-4.4,4.4-4.4-4.4,4.4-4.4Z" transform="translate(-115.697 -17.523)" fill="#f15a29"/>
    <path id="Path_19795" data-name="Path 19795" d="M111.735,142.385v5.6h-5.6v-5.6Z" transform="translate(-68.245 -91.557)" fill="#2baae1"/>
    <rect id="Rectangle_2224" data-name="Rectangle 2224" width="5.602" height="5.602" transform="translate(22.209 38.852)" fill="#2baae1"/>
    <path id="Path_19796" data-name="Path 19796" d="M86.183,147.637a3.242,3.242,0,1,1,3.241-3.242,3.247,3.247,0,0,1-3.241,3.242m0-5.048a1.8,1.8,0,1,0,1.8,1.805,1.807,1.807,0,0,0-1.8-1.805" transform="translate(-53.333 -90.765)" fill="#fec214"/>
    <path id="Path_19797" data-name="Path 19797" d="M67.464,144.4a3.241,3.241,0,1,1-3.24-3.242,3.245,3.245,0,0,1,3.24,3.242" transform="translate(-39.213 -90.766)" fill="#f15a29"/>
    <path id="Path_19798" data-name="Path 19798" d="M108.138,107.527a3.241,3.241,0,1,0,3.241,3.24,3.243,3.243,0,0,0-3.241-3.24m0,5.143a1.9,1.9,0,1,1,1.9-1.9,1.9,1.9,0,0,1-1.9,1.9" transform="translate(-67.451 -69.143)" fill="#2baae1"/>
    <path id="Path_19799" data-name="Path 19799" d="M113.337,115.167a.8.8,0,1,1-.8-.8.8.8,0,0,1,.8.8" transform="translate(-71.851 -73.541)" fill="#f15a29"/>
    <rect id="Rectangle_2225" data-name="Rectangle 2225" width="20.481" height="21.604" transform="translate(0 36.788)" fill="#2baae1"/>
    <path id="Path_19800" data-name="Path 19800" d="M152.748,89.125c-.015.04-.04.078-.054.12A16.543,16.543,0,0,1,139.759,100.3v6.281A22.787,22.787,0,0,0,158.595,91.2c.014-.041.018-.086.03-.126Z" transform="translate(-89.869 -57.31)" fill="#f15a29"/>
    <path id="Path_19801" data-name="Path 19801" d="M150.931,161.276a16.461,16.461,0,0,1-12.633.987V168.7a22.592,22.592,0,0,0,15.919-2.134Z" transform="translate(-88.929 -103.705)" fill="#f15a29"/>
    <path id="Path_19802" data-name="Path 19802" d="M15.674,129.434a2.155,2.155,0,1,1-2.154-2.157,2.154,2.154,0,0,1,2.154,2.157" transform="translate(-7.307 -81.843)" fill="#fff"/>
  </g>
</svg>
