<svg xmlns="http://www.w3.org/2000/svg" width="23.677" height="23.677" viewBox="0 0 23.677 23.677">
  <g id="icon-shop" transform="translate(0.625 0.625)">
    <path id="Path_3834" data-name="Path 3834" d="M17.967,19.321a1.95,1.95,0,1,0,1.95,1.95A1.95,1.95,0,0,0,17.967,19.321Zm-9.263,0a1.95,1.95,0,1,0,1.95,1.95A1.95,1.95,0,0,0,8.7,19.321Zm-.975-6.338H17.967a3.549,3.549,0,0,0,3.412-2.438L23.33,3.232H5.285" transform="translate(-0.903 -0.794)" fill="none" stroke="#fff" stroke-linecap="round" stroke-linejoin="round" stroke-width="1.25"/>
    <path id="Path_3835" data-name="Path 3835" d="M.657.657H4.07L7.483,12.846a14.774,14.774,0,0,0-1.13,1.347,1.95,1.95,0,0,0,1.617,3.04H20.159" transform="translate(-0.657 -0.657)" fill="none" stroke="#fff" stroke-linecap="round" stroke-linejoin="round" stroke-width="1.25"/>
  </g>
</svg>
