<svg xmlns="http://www.w3.org/2000/svg" xmlns:xlink="http://www.w3.org/1999/xlink" width="100" height="100" viewBox="0 0 100 100">
  <defs>
    <clipPath id="clip-path">
      <rect id="Rectangle_3390" data-name="Rectangle 3390" width="48" height="58" fill="#fff"/>
    </clipPath>
  </defs>
  <g id="Group_22121" data-name="Group 22121" transform="translate(-164 -1260)">
    <circle id="Ellipse_136" data-name="Ellipse 136" cx="50" cy="50" r="50" transform="translate(164 1260)" fill="#f15a29"/>
    <g id="Group_22083" data-name="Group 22083" transform="translate(190 1279)">
      <g id="Group_22082" data-name="Group 22082" clip-path="url(#clip-path)">
        <path id="Path_20039" data-name="Path 20039" d="M20.213,30.329a1.146,1.146,0,0,1-.2-.017,1.21,1.21,0,0,1-.995-1.394C20.312,21.142,30.4,17,37.176,17a1.211,1.211,0,0,1,1.212,1.212v2.423a1.212,1.212,0,0,1-2.423,0V19.472c-5.733.441-13.568,3.907-14.558,9.844a1.212,1.212,0,0,1-1.194,1.013" transform="translate(4.023 3.6)" fill="#fff"/>
        <path id="Path_20040" data-name="Path 20040" d="M23.811,50.753a1.208,1.208,0,0,1-.857-.355C19.777,47.22,9.4,45.907,3.449,47.093A1.211,1.211,0,0,1,2,45.906V36.212a1.212,1.212,0,0,1,2.423,0v8.274c6.174-.776,16.4.356,20.245,4.2a1.212,1.212,0,0,1-.857,2.068" transform="translate(0.423 7.411)" fill="#fff"/>
        <path id="Path_20041" data-name="Path 20041" d="M3.212,32.769A1.211,1.211,0,0,1,2,31.557V24.288A1.21,1.21,0,0,1,2.974,23.1c5.881-1.175,17.533-.2,21.694,3.966a1.212,1.212,0,0,1-1.713,1.713c-3.01-3.01-12.483-4.35-18.531-3.47v6.248a1.211,1.211,0,0,1-1.212,1.212" transform="translate(0.423 4.794)" fill="#fff"/>
        <path id="Path_20042" data-name="Path 20042" d="M20.212,50.964a1.212,1.212,0,0,1-.857-2.068C23.2,45.054,33.427,43.922,39.6,44.7V35.212a1.212,1.212,0,1,1,2.423,0V46.117A1.211,1.211,0,0,1,40.574,47.3c-5.95-1.186-16.327.127-19.505,3.3a1.208,1.208,0,0,1-.857.355" transform="translate(4.023 7.199)" fill="#fff"/>
        <path id="Path_20043" data-name="Path 20043" d="M40.811,31.751A1.211,1.211,0,0,1,39.6,30.539V24.3c-5.952-.745-15.428,1.57-18.531,4.672a1.212,1.212,0,0,1-1.713-1.713c3.855-3.855,15-6.519,21.694-5.178a1.21,1.21,0,0,1,.974,1.188v7.27a1.211,1.211,0,0,1-1.212,1.212" transform="translate(4.023 4.601)" fill="#fff"/>
        <path id="Path_20044" data-name="Path 20044" d="M20.212,52.658A1.211,1.211,0,0,1,19,51.447V27.212a1.212,1.212,0,1,1,2.423,0V51.447a1.211,1.211,0,0,1-1.212,1.212" transform="translate(4.023 5.505)" fill="#fff"/>
        <path id="Path_20045" data-name="Path 20045" d="M19.482,20.6A8.6,8.6,0,0,1,11,11.9V8.7A8.6,8.6,0,0,1,19.482,0a8.6,8.6,0,0,1,8.482,8.7V11.9a8.6,8.6,0,0,1-8.482,8.7m0-18.176A6.175,6.175,0,0,0,13.423,8.7V11.9a6.175,6.175,0,0,0,6.059,6.273A6.175,6.175,0,0,0,25.541,11.9V8.7a6.175,6.175,0,0,0-6.059-6.272" transform="translate(2.329 0)" fill="#fff"/>
        <path id="Path_20046" data-name="Path 20046" d="M6.708,22.77a1.211,1.211,0,0,1-1.048-1.818C7.717,17.392,13.741,15,20.647,15a26.357,26.357,0,0,1,8.44,1.315,1.212,1.212,0,0,1-.786,2.293,23.916,23.916,0,0,0-7.653-1.184c-5.976,0-11.276,1.948-12.889,4.74a1.21,1.21,0,0,1-1.051.606" transform="translate(1.164 3.176)" fill="#fff"/>
        <path id="Path_20047" data-name="Path 20047" d="M4.847,38.694H2.423A2.426,2.426,0,0,1,0,36.27V31.423A2.426,2.426,0,0,1,2.423,29H4.847a3.64,3.64,0,0,1,3.635,3.635v2.423a3.64,3.64,0,0,1-3.635,3.635m-2.423-7.27V36.27H4.847a1.213,1.213,0,0,0,1.212-1.212V32.635a1.213,1.213,0,0,0-1.212-1.212Z" transform="translate(0 6.141)" fill="#fff"/>
        <path id="Path_20048" data-name="Path 20048" d="M39.059,37.694H36.635A3.64,3.64,0,0,1,33,34.059V31.635A3.64,3.64,0,0,1,36.635,28h2.423a2.426,2.426,0,0,1,2.423,2.423V35.27a2.426,2.426,0,0,1-2.423,2.423m-2.423-7.27a1.213,1.213,0,0,0-1.212,1.212v2.423a1.213,1.213,0,0,0,1.212,1.212h2.423V30.423Z" transform="translate(6.988 5.929)" fill="#fff"/>
      </g>
    </g>
  </g>
</svg>
