<svg xmlns="http://www.w3.org/2000/svg" width="19" height="32" viewBox="0 0 19 32"><path d="M16.829,0H2.171A2.173,2.173,0,0,0,0,2.169V29.831A2.173,2.173,0,0,0,2.171,32H16.829A2.173,2.173,0,0,0,19,29.831V2.169A2.173,2.173,0,0,0,16.829,0m1.086,29.831a1.087,1.087,0,0,1-1.086,1.085H2.171a1.087,1.087,0,0,1-1.086-1.085V27.661H17.914Zm0-3.254H1.086V4.881H17.914Zm0-22.78H1.086V2.169A1.086,1.086,0,0,1,2.171,1.085H16.829a1.086,1.086,0,0,1,1.086,1.085Z" fill="#fff"/><rect width="3" height="1" transform="translate(8 29)" fill="#fff"/><path d="M9.371,17.073A.975.975,0,1,0,8.4,16.1a.977.977,0,0,0,.976.975" transform="translate(-3.838 -6.921)" fill="#fff"/><path d="M5.867,17.571H9.989a.63.63,0,0,0,.628-.628V12.826a.63.63,0,0,0-.628-.628H5.867a.63.63,0,0,0-.628.628v4.118a.63.63,0,0,0,.628.628m2.061-4.5a1.682,1.682,0,0,1,1.308,2.742l.377.388-.5.487-.421-.434a1.683,1.683,0,1,1-.761-3.184" transform="translate(-2.395 -5.582)" fill="#fff"/><rect width="13.325" height="1.085" transform="translate(2.847 14.665)" fill="#fff"/><rect width="13.325" height="1.085" transform="translate(2.847 17.791)" fill="#fff"/><rect width="7.849" height="1.085" transform="translate(2.847 21.218)" fill="#fff"/></svg>