<?xml version="1.0" encoding="utf-8"?>
<!-- Generator: Adobe Illustrator 25.0.0, SVG Export Plug-In . SVG Version: 6.00 Build 0)  -->
<svg version="1.1" id="Layer_1" xmlns="http://www.w3.org/2000/svg" xmlns:xlink="http://www.w3.org/1999/xlink" x="0px" y="0px"
	 viewBox="0 0 1024 768" style="enable-background:new 0 0 1024 768;" xml:space="preserve">
<style type="text/css">
	.st0{fill:#F15A24;}
</style>
<path class="st0" d="M241.79,370.1c55.64,0.01,100.92-48.7,100.93-108.57s-45.25-108.6-100.89-108.61
	c-55.64-0.01-100.92,48.7-100.93,108.57C140.91,321.37,186.17,370.09,241.79,370.1z M241.83,177.04
	c43.28,0.01,78.49,37.9,78.48,84.48s-35.22,84.46-78.51,84.45s-78.49-37.9-78.48-84.48C163.33,214.91,198.55,177.03,241.83,177.04z
	 M651.48,583.87c0,6.66,5.01,12.05,11.2,12.06l186.3,0.03c6.19,0,11.2-5.39,11.2-12.05c0-0.12-0.02-0.23-0.02-0.36l47.94-192.34
	c1.61-6.43-1.95-13.05-7.92-14.76c-5.97-1.73-12.13,2.1-13.72,8.53l-46.58,186.89l-177.2-0.03
	C656.49,571.82,651.48,577.21,651.48,583.87z M931.77,635.97l-336.11-0.06l0-22.33c0.01-35.47-26.79-64.32-59.75-64.32l-29.85-0.01
	c-12.74,0-25.21-3.8-36.07-10.99l-177.21-129.8c-1.21-0.89-2.53-1.48-3.89-1.8c-14.43-7.25-29.86-10.92-45.95-10.92
	c-60.08-0.01-108.96,52.58-108.97,117.23l-0.03,134.89c0,6.66,5.01,12.06,11.2,12.06s11.2-5.39,11.2-12.05l0.03-134.89
	c0.01-51.35,38.85-93.13,86.57-93.12c13.5,0,26.42,3.26,38.42,9.66c0.31,0.16,0.63,0.3,0.94,0.45L457.6,558.34
	c0.13,0.09,0.26,0.2,0.4,0.28c14.44,9.64,31.07,14.73,48.06,14.73l29.85,0.01c20.6,0,37.36,18.04,37.35,40.21l0,22.33l-116.23-0.02
	c-4.73,0-9.33-1.46-13.3-4.24L268.59,509.09c-5.18-3.63-12.13-2.05-15.5,3.54c-3.38,5.59-1.91,13.05,3.29,16.68l50.09,35.05
	l-0.02,83.15c0,6.66,5.01,12.06,11.2,12.06c6.19,0,11.2-5.39,11.2-12.05l0.01-67.48l102.62,71.81c7.61,5.33,16.44,8.14,25.51,8.14
	l474.74,0.09c6.19,0,11.2-5.39,11.2-12.05C942.97,641.37,937.95,635.97,931.77,635.97z M658.65,431.27
	c1.14,0.43,2.35,0.66,3.62,0.66s2.48-0.23,3.62-0.66c88.6-1.96,160.14-80.13,160.16-175.94c0.02-96.27-72.16-174.72-161.34-176.02
	c-0.76-0.18-1.56-0.29-2.38-0.29c-0.83,0-1.62,0.11-2.4,0.28c-60.04,0.99-112.35,36.98-140.03,89.8c-0.22,0.37-0.41,0.77-0.6,1.16
	c-12.98,25.21-20.38,54.18-20.38,84.98C498.9,350.95,570.22,429.06,658.65,431.27z M722.04,393c8.61-12.84,15.92-28.49,21.6-46.25
	l31.47,0.01C761.26,366.47,743.06,382.44,722.04,393z M788.99,322.64l-38.95-0.01c3.68-17.09,5.98-35.61,6.65-55.09l46.49,0.01
	C801.72,287.21,796.76,305.8,788.99,322.64z M788.88,187.7c7.89,17.02,12.92,35.86,14.35,55.75l-46.54-0.01
	c-0.69-19.73-3.07-38.48-6.86-55.75L788.88,187.7z M774.93,163.59l-31.62-0.01c-5.8-17.88-13.3-33.58-22.08-46.39
	C742.5,127.7,760.92,143.75,774.93,163.59z M673.54,106.13c18.3,6.09,34.56,27.44,45.69,57.45l-45.7-0.01L673.54,106.13z
	 M673.52,187.68l53.05,0.01c4.2,17.09,6.88,35.95,7.68,55.75l-60.72-0.01l0.01-55.75H673.52z M673.51,267.53l60.76,0.01
	c-0.76,19.53-3.37,38.16-7.44,55.09l-53.33-0.01L673.51,267.53L673.51,267.53z M673.49,346.73l46.11,0.01
	c-11.14,30.61-27.59,52.43-46.12,58.59L673.49,346.73z M549.83,346.71l32.07,0.01c5.74,17.98,13.16,33.78,21.88,46.71
	C582.38,382.86,563.87,366.71,549.83,346.71z M651.08,404.98c-18.15-6.59-34.23-28.17-45.16-58.27l45.17,0.01L651.08,404.98z
	 M651.09,322.62l-52.37-0.01c-4.07-16.92-6.68-35.54-7.42-55.09l59.8,0.01L651.09,322.62z M651.11,243.42l-59.78-0.01
	c0.8-19.8,3.5-38.67,7.7-55.75l52.09,0.01L651.11,243.42z M651.13,106.46l-0.01,57.1l-44.74-0.01
	C617.31,134.06,633.21,112.96,651.13,106.46z M604.7,116.73c-8.92,12.89-16.52,28.73-22.41,46.82l-32.21-0.01
	C564.3,143.43,583.04,127.21,604.7,116.73z M536.13,187.65l39.64,0.01c-3.79,17.27-6.18,36.02-6.88,55.75l-47.14-0.01
	C523.2,223.51,528.23,204.67,536.13,187.65z M521.78,267.5l47.09,0.01c0.66,19.48,2.95,37.98,6.62,55.09l-39.54-0.01
	C528.2,305.75,523.24,287.16,521.78,267.5z"/>
</svg>
