<svg xmlns="http://www.w3.org/2000/svg" xmlns:xlink="http://www.w3.org/1999/xlink" width="24" height="33" viewBox="0 0 24 33">
  <defs>
    <clipPath id="clip-path">
      <rect id="Rectangle_3379" data-name="Rectangle 3379" width="24" height="33" fill="#f15a29"/>
    </clipPath>
  </defs>
  <g id="Group_22074" data-name="Group 22074" clip-path="url(#clip-path)">
    <path id="Path_19994" data-name="Path 19994" d="M19.349,12.989a4.259,4.259,0,1,0-4.259,4.293,4.281,4.281,0,0,0,4.259-4.293m-7.136,0A2.878,2.878,0,1,1,15.091,15.9a2.9,2.9,0,0,1-2.878-2.912" transform="translate(-3.353 -2.833)" fill="#f15a29"/>
    <path id="Path_19995" data-name="Path 19995" d="M11.967,28.825a.689.689,0,0,0,.914,0c.4-.351,9.751-8.722,9.751-18.528a10.208,10.208,0,1,0-20.414,0c0,9.806,9.351,18.177,9.749,18.528m.457-27.445A8.882,8.882,0,0,1,21.252,10.3c0,7.984-6.958,15.255-8.827,17.064C10.554,25.552,3.6,18.281,3.6,10.3a8.882,8.882,0,0,1,8.825-8.916" transform="translate(-0.687 -0.141)" fill="#f15a29"/>
    <path id="Path_19996" data-name="Path 19996" d="M19.49,39.118a.69.69,0,1,0-.315,1.344c2.4.562,2.919,1.2,2.919,1.33,0,.6-3.629,2.071-10.357,2.071S1.381,42.393,1.381,41.792c0-.128.519-.768,2.919-1.33a.69.69,0,1,0-.315-1.344C1.341,39.736,0,40.636,0,41.792c0,2.731,7.678,3.452,11.738,3.452s11.738-.722,11.738-3.452c0-1.156-1.341-2.056-3.985-2.675" transform="translate(0 -12.245)" fill="#f15a29"/>
  </g>
</svg>
