<svg xmlns="http://www.w3.org/2000/svg" xmlns:xlink="http://www.w3.org/1999/xlink" width="34" height="34" viewBox="0 0 34 34">
  <defs>
    <clipPath id="clip-path">
      <rect id="Rectangle_3386" data-name="Rectangle 3386" width="34" height="34" fill="#f15a29"/>
    </clipPath>
  </defs>
  <g id="Group_22080" data-name="Group 22080" clip-path="url(#clip-path)">
    <path id="Path_20031" data-name="Path 20031" d="M12.826,8.217c-2.746,0-8.13,1.339-8.13,4.435V19.3a3.872,3.872,0,0,0,2.956,3.608V26.7H9.129V14.129H7.652v7.233A2.42,2.42,0,0,1,6.173,19.3V12.652c0-1.687,4.037-2.956,6.653-2.956s6.653,1.269,6.653,2.956V19.3A2.42,2.42,0,0,1,18,21.362V14.129H16.522V26.7H18V22.913A3.869,3.869,0,0,0,20.956,19.3V12.652c0-3.1-5.383-4.435-8.13-4.435" transform="translate(4.174 7.304)" fill="#f15a29"/>
    <path id="Path_20032" data-name="Path 20032" d="M14.467,9.391c-.249,0-.521.013-.808.04L13.8,10.9c.238-.023.463-.034.671-.034,2.325,0,5.914,1.269,5.914,2.956v6.653c0,.763-.727,1.211-1.479,1.388V15.3H17.424V25.652H18.9v-2.28c1.539-.244,2.956-1.239,2.956-2.894V13.826c0-3.1-4.894-4.435-7.391-4.435" transform="translate(12.141 8.348)" fill="#f15a29"/>
    <path id="Path_20033" data-name="Path 20033" d="M7.043,8.252a3.44,3.44,0,0,0,3.7,3.4,3.439,3.439,0,0,0,3.695-3.4V6.922a3.439,3.439,0,0,0-3.695-3.4,3.44,3.44,0,0,0-3.7,3.4Zm1.479-1.33A1.974,1.974,0,0,1,10.74,5a1.974,1.974,0,0,1,2.218,1.923v1.33a1.973,1.973,0,0,1-2.218,1.921A1.973,1.973,0,0,1,8.522,8.252Z" transform="translate(6.26 3.131)" fill="#f15a29"/>
    <path id="Path_20034" data-name="Path 20034" d="M12.521,8.1v1.33a3.44,3.44,0,0,0,3.7,3.4,3.44,3.44,0,0,0,3.695-3.4V8.1a3.44,3.44,0,0,0-3.695-3.4,3.44,3.44,0,0,0-3.7,3.4m5.914,0v1.33a1.973,1.973,0,0,1-2.218,1.921A1.973,1.973,0,0,1,14,9.426V8.1a1.974,1.974,0,0,1,2.218-1.923A1.974,1.974,0,0,1,18.435,8.1" transform="translate(11.13 4.174)" fill="#f15a29"/>
    <path id="Path_20035" data-name="Path 20035" d="M0,13.826v6.653c0,1.655,1.417,2.65,2.956,2.894v2.28H4.435V15.305H2.956v6.562c-.752-.178-1.477-.625-1.477-1.388V13.826c0-1.687,3.587-2.956,5.912-2.956.208,0,.433.011.671.034L8.2,9.431c-.287-.026-.559-.04-.808-.04C4.894,9.391,0,10.73,0,13.826" transform="translate(0 8.348)" fill="#f15a29"/>
    <path id="Path_20036" data-name="Path 20036" d="M5.261,12.828a3.441,3.441,0,0,0,3.695-3.4V8.1A3.44,3.44,0,0,0,5.261,4.7,3.439,3.439,0,0,0,1.566,8.1v1.33a3.44,3.44,0,0,0,3.695,3.4M3.043,8.1A1.974,1.974,0,0,1,5.261,6.173,1.974,1.974,0,0,1,7.478,8.1v1.33a1.974,1.974,0,0,1-2.218,1.923A1.974,1.974,0,0,1,3.043,9.426Z" transform="translate(1.392 4.174)" fill="#f15a29"/>
    <path id="Path_20037" data-name="Path 20037" d="M7.218,8.13a3.44,3.44,0,0,0,3.695-3.4V3.4A3.44,3.44,0,0,0,7.218,0a3.44,3.44,0,0,0-3.7,3.4V4.73a3.44,3.44,0,0,0,3.7,3.4M5,3.4A1.974,1.974,0,0,1,7.218,1.477,1.974,1.974,0,0,1,9.435,3.4V4.73A1.974,1.974,0,0,1,7.218,6.653,1.974,1.974,0,0,1,5,4.73Z" transform="translate(3.13)" fill="#f15a29"/>
    <path id="Path_20038" data-name="Path 20038" d="M14.261,8.13a3.44,3.44,0,0,0,3.695-3.4V3.4A3.44,3.44,0,0,0,14.261,0a3.439,3.439,0,0,0-3.695,3.4V4.73a3.439,3.439,0,0,0,3.695,3.4M12.043,3.4a1.974,1.974,0,0,1,2.218-1.923A1.974,1.974,0,0,1,16.478,3.4V4.73a1.974,1.974,0,0,1-2.218,1.923A1.974,1.974,0,0,1,12.043,4.73Z" transform="translate(9.392)" fill="#f15a29"/>
  </g>
</svg>
