<svg xmlns:xlink="http://www.w3.org/1999/xlink" xmlns="http://www.w3.org/2000/svg" width="25.009" height="25.508" viewBox="0 0 25.009 25.508">
  <g id="Group_19363" data-name="Group 19363" transform="translate(-17018.094 5553.004)">
    <path id="Path_7210" data-name="Path 7210" d="M19.807-44.094h2.681a2.567,2.567,0,0,1,2.566,2.552v17.13a2.567,2.567,0,0,1-2.566,2.552H3.861a2.566,2.566,0,0,1-2.566-2.552v-17.13a2.566,2.566,0,0,1,2.566-2.552H6.733" transform="translate(17017.424 -5506.26)" fill="none" stroke="#F15A29" stroke-linecap="round" stroke-linejoin="round" stroke-width="1.25px"></path>
    <path id="Path_7211" data-name="Path 7211" d="M7.627-30.693l1.6,2.461,2.83-4.553" transform="translate(17014.928 -5510.873)" fill="none" stroke="#F15A29" stroke-linecap="round" stroke-linejoin="round" stroke-width="1.25px"></path>
    <line id="Line_223" data-name="Line 223" x2="9.844" transform="translate(17029.182 -5540.393)" fill="none" stroke="#F15A29" stroke-linecap="round" stroke-linejoin="round" stroke-width="1.25px"></line>
    <path id="Path_7212" data-name="Path 7212" d="M7.627-18.488l1.6,2.461,2.83-4.553" transform="translate(17014.928 -5515.685)" fill="none" stroke="#F15A29" stroke-linecap="round" stroke-linejoin="round" stroke-width="1.25px"></path>
    <line id="Line_224" data-name="Line 224" x2="9.844" transform="translate(17029.182 -5533.213)" fill="none" stroke="#F15A29" stroke-linecap="round" stroke-linejoin="round" stroke-width="1.25px"></line>
    <rect id="Rectangle_577" data-name="Rectangle 577" width="11.884" height="5.317" transform="translate(17024.656 -5552.379)" fill="none" stroke="#F15A29" stroke-linecap="round" stroke-linejoin="round" stroke-width="1.25px"></rect>
  </g>
</svg>