<svg xmlns:xlink="http://www.w3.org/1999/xlink" xmlns="http://www.w3.org/2000/svg" width="24.972" height="24.973" viewBox="0 0 24.972 24.973">
  <g id="Group_19365" data-name="Group 19365" transform="translate(-17524.832 5692.625)">
    <rect id="Rectangle_575" data-name="Rectangle 575" width="8.251" height="6.704" rx="1.031" transform="translate(17525.457 -5692)" fill="none" stroke="#F15A29" stroke-linecap="round" stroke-linejoin="round" stroke-width="1.25px"></rect>
    <path id="Path_7204" data-name="Path 7204" d="M3.217,7.343,2.186,8.89l.516.516H6.827l.516-.516L6.311,7.343" transform="translate(17524.818 -5692.639)" fill="none" stroke="#F15A29" stroke-linecap="round" stroke-linejoin="round" stroke-width="1.25px"></path>
    <rect id="Rectangle_576" data-name="Rectangle 576" width="8.251" height="6.704" rx="1.031" transform="translate(17540.928 -5677.044)" fill="none" stroke="#F15A29" stroke-linecap="round" stroke-linejoin="round" stroke-width="1.25px"></rect>
    <path id="Path_7205" data-name="Path 7205" d="M18.689,22.3l-1.031,1.547.516.516H22.3l.516-.516L21.783,22.3" transform="translate(17524.818 -5692.639)" fill="none" stroke="#F15A29" stroke-linecap="round" stroke-linejoin="round" stroke-width="1.25px"></path>
    <path id="Path_7206" data-name="Path 7206" d="M23.846,8.374l-3.61,3.094-3.61-3.094" transform="translate(17524.818 -5692.639)" fill="none" stroke="#F15A29" stroke-linecap="round" stroke-linejoin="round" stroke-width="1.25px"></path>
    <path id="Path_7207" data-name="Path 7207" d="M11.984,3.733h6.7A1.5,1.5,0,0,1,20.236,5.28v5.673" transform="translate(17524.818 -5692.639)" fill="none" stroke="#F15A29" stroke-linecap="round" stroke-linejoin="round" stroke-width="1.25px"></path>
    <path id="Path_7208" data-name="Path 7208" d="M1.154,16.11l3.61-3.094,3.61,3.094" transform="translate(17524.818 -5692.639)" fill="none" stroke="#F15A29" stroke-linecap="round" stroke-linejoin="round" stroke-width="1.25px"></path>
    <path id="Path_7209" data-name="Path 7209" d="M13.016,20.751h-6.7A1.5,1.5,0,0,1,4.764,19.2V13.531" transform="translate(17524.818 -5692.639)" fill="none" stroke="#F15A29" stroke-linecap="round" stroke-linejoin="round" stroke-width="1.25px"></path>
  </g>
</svg>