<svg xmlns:xlink="http://www.w3.org/1999/xlink" xmlns="http://www.w3.org/2000/svg" width="25.949" height="22.145" viewBox="0 0 27.949 22.145">
  <g id="Group_19371" data-name="Group 19371" transform="translate(-17176.834 4930.759)">
    <path id="Path_7169" data-name="Path 7169" d="M386,503.322a2.322,2.322,0,1,1,2.322,2.322A2.322,2.322,0,0,1,386,503.322Z" transform="translate(16796.682 -5424.169)" fill="none" stroke="#F15A29" stroke-miterlimit="10" stroke-width="1.25px"></path>
    <path id="Path_7170" data-name="Path 7170" d="M390.965,515.322c0-1.266-1.033-2.322-3.483-2.322S384,514.056,384,515.322" transform="translate(16797.521 -5429.205)" fill="none" stroke="#F15A29" stroke-miterlimit="10" stroke-width="1.25px"></path>
    <path id="Path_7171" data-name="Path 7171" d="M403.385,494h-1.741a4.634,4.634,0,0,0-3.612,7.548l-.45,1.739,1.806-.587a4.622,4.622,0,0,0,2.257.587h1.741a4.643,4.643,0,0,0,0-9.287Z" transform="translate(16792.066 -5421.232)" fill="none" stroke="#F15A29" stroke-miterlimit="10" stroke-width="1.25px"></path>
    <line id="Line_205" data-name="Line 205" x2="3.519" transform="translate(17191.855 -4923.735)" fill="none" stroke="#F15A29" stroke-miterlimit="10" stroke-width="1.25px"></line>
    <line id="Line_206" data-name="Line 206" x2="5.439" transform="translate(17191.855 -4921.496)" fill="none" stroke="#F15A29" stroke-miterlimit="10" stroke-width="1.25px"></line>
    <path id="Path_7172" data-name="Path 7172" d="M403.217,505.252V490.82A1.822,1.822,0,0,0,401.4,489H381.82a1.822,1.822,0,0,0-1.82,1.82v14.432" transform="translate(16799.201 -5419.134)" fill="none" stroke="#F15A29" stroke-miterlimit="10" stroke-width="1.25px"></path>
    <path id="Path_7173" data-name="Path 7173" d="M377,520a2.9,2.9,0,0,0,2.9,2.9h20.9a2.9,2.9,0,0,0,2.9-2.9H393.252l-.58.58h-4.643l-.58-.58Z" transform="translate(16800.459 -5432.142)" fill="none" stroke="#F15A29" stroke-miterlimit="10" stroke-width="1.25px"></path>
  </g>
</svg>