<svg xmlns:xlink="http://www.w3.org/1999/xlink" xmlns="http://www.w3.org/2000/svg" width="24.976" height="20.85" viewBox="0 0 24.976 20.85">
  <g id="Group_19370" data-name="Group 19370" transform="translate(-17178.049 4998.864)">
    <path id="Path_7168" data-name="Path 7168" d="M23.331,4.248h1.032v16.5H16.11A3.62,3.62,0,0,0,13.532,22.3H11.468A3.62,3.62,0,0,0,8.89,20.752H.637V4.248H1.669M3.216,2.7h7.221a2.748,2.748,0,0,1,2.063.856A2.748,2.748,0,0,1,14.563,2.7h7.221V18.173H14.657a3.824,3.824,0,0,0-2.157.633,3.824,3.824,0,0,0-2.157-.633H3.216Z" transform="translate(17178.037 -5000.939)" fill="none" stroke="#F15A29" stroke-linecap="round" stroke-linejoin="round" stroke-width="1.25px"></path>
    <line id="Line_199" data-name="Line 199" x1="5.673" transform="translate(17191.568 -4994.113)" fill="none" stroke="#F15A29" stroke-linecap="round" stroke-linejoin="round" stroke-width="1.25px"></line>
    <line id="Line_200" data-name="Line 200" x1="5.673" transform="translate(17191.568 -4990.502)" fill="none" stroke="#F15A29" stroke-linecap="round" stroke-linejoin="round" stroke-width="1.25px"></line>
    <line id="Line_201" data-name="Line 201" x1="5.673" transform="translate(17191.568 -4986.892)" fill="none" stroke="#F15A29" stroke-linecap="round" stroke-linejoin="round" stroke-width="1.25px"></line>
    <line id="Line_202" data-name="Line 202" x1="5.673" transform="translate(17183.832 -4994.113)" fill="none" stroke="#F15A29" stroke-linecap="round" stroke-linejoin="round" stroke-width="1.25px"></line>
    <line id="Line_203" data-name="Line 203" x1="5.673" transform="translate(17183.832 -4990.502)" fill="none" stroke="#F15A29" stroke-linecap="round" stroke-linejoin="round" stroke-width="1.25px"></line>
    <line id="Line_204" data-name="Line 204" x1="5.673" transform="translate(17183.832 -4986.892)" fill="none" stroke="#F15A29" stroke-linecap="round" stroke-linejoin="round" stroke-width="1.25px"></line>
  </g>
</svg>