<svg xmlns:xlink="http://www.w3.org/1999/xlink" xmlns="http://www.w3.org/2000/svg" width="23.326" height="28.765" viewBox="0 0 23.326 28.765">
  <g id="Group_19379" data-name="Group 19379" transform="translate(-18315.774 5026.745)">
    <circle id="Ellipse_78" data-name="Ellipse 78" cx="3.347" cy="3.347" r="3.347" transform="translate(18320.113 -5026.12)" fill="none" stroke="#F15A29" stroke-linecap="round" stroke-linejoin="round" stroke-width="1.25px"></circle>
    <line id="Line_211" data-name="Line 211" x1="12.172" transform="translate(18326.201 -5008.471)" fill="none" stroke="#F15A29" stroke-linecap="round" stroke-linejoin="round" stroke-width="1.25px"></line>
    <line id="Line_212" data-name="Line 212" y2="9.866" transform="translate(18327.418 -5008.471)" fill="none" stroke="#F15A29" stroke-linecap="round" stroke-linejoin="round" stroke-width="1.25px"></line>
    <line id="Line_213" data-name="Line 213" y1="9.866" transform="translate(18337.152 -5008.471)" fill="none" stroke="#F15A29" stroke-linecap="round" stroke-linejoin="round" stroke-width="1.25px"></line>
    <path id="Path_7184" data-name="Path 7184" d="M11.247,18.424H10.029V13.555l2,1.217h2.26a2.15,2.15,0,0,0,2.435-2.434H13.072S10.68,9.586,10.644,9.544A3.332,3.332,0,0,0,8.21,8.078a2.573,2.573,0,0,0-2.435,2.434s0,9.129,0,9.737a1.308,1.308,0,0,0,1.217,1.218h4.26" transform="translate(18313.738 -5025.678)" fill="none" stroke="#F15A29" stroke-linecap="round" stroke-linejoin="round" stroke-width="1.25px"></path>
    <path id="Path_7185" data-name="Path 7185" d="M3.179,12.223,4.4,23.177h7.3" transform="translate(18313.285 -5024.954)" fill="none" stroke="#F15A29" stroke-linecap="round" stroke-linejoin="round" stroke-width="1.25px"></path>
    <path id="Path_7186" data-name="Path 7186" d="M16.132,14.772h5.477l1.217-6.695" transform="translate(18315.547 -5025.678)" fill="none" stroke="#F15A29" stroke-linecap="round" stroke-linejoin="round" stroke-width="1.25px"></path>
  </g>
</svg>