<svg xmlns:xlink="http://www.w3.org/1999/xlink" xmlns="http://www.w3.org/2000/svg" width="24.936" height="24.936" viewBox="0 0 24.936 24.936">
  <g id="Group_19364" data-name="Group 19364" transform="translate(-17018.552 5623.625)">
    <path id="Path_7214" data-name="Path 7214" d="M18.679,20.224a2.059,2.059,0,1,0,2.059,2.059A2.059,2.059,0,0,0,18.679,20.224Zm-9.783,0a2.059,2.059,0,1,0,2.059,2.059A2.059,2.059,0,0,0,8.9,20.224ZM7.866,13.53H18.679a3.748,3.748,0,0,0,3.6-2.575l2.06-7.723H5.285" transform="translate(17018.52 -5623.657)" fill="none" stroke="#F15A29" stroke-linecap="round" stroke-linejoin="round" stroke-width="1.25px"></path>
    <path id="Path_7215" data-name="Path 7215" d="M.657.657H4.262l3.6,12.873a15.6,15.6,0,0,0-1.193,1.423,2.059,2.059,0,0,0,1.708,3.211H21.253" transform="translate(17018.52 -5623.657)" fill="none" stroke="#F15A29" stroke-linecap="round" stroke-linejoin="round" stroke-width="1.25px"></path>
  </g>
</svg>