<svg xmlns="http://www.w3.org/2000/svg" xmlns:xlink="http://www.w3.org/1999/xlink" width="25" height="20.89" viewBox="0 0 25 20.89">
  <defs>
    <clipPath id="clip-path">
      <rect id="Rectangle_2257" data-name="Rectangle 2257" width="25" height="20.89" fill="#f15a29"></rect>
    </clipPath>
  </defs>
  <g id="Group_22093" data-name="Group 22093" transform="translate(0 0)">
    <g id="Group_22093-2" data-name="Group 22093" transform="translate(0 0)" clip-path="url(#clip-path)">
      <path id="Path_19923" data-name="Path 19923" d="M21.607,10.1a.534.534,0,0,1-.365-.144L18.91,7.787H17.6a10.616,10.616,0,0,1-2.174,1.178,3.3,3.3,0,0,1-3.592-.877.536.536,0,0,1-.01-.747c.99-1.047,1.979-2.048,1.979-2.048l1.908-1.93a2.556,2.556,0,0,1,1.685-.643h3.06a3.735,3.735,0,0,0,2.286-.509.46.46,0,0,1,.057-.05L25.528.107a.536.536,0,1,1,.643.857L23.467,3a4.5,4.5,0,0,1-3.014.794h-3.06a1.464,1.464,0,0,0-.955.355l-1.876,1.9s-.739.748-1.575,1.623a2.2,2.2,0,0,0,2.089.282,10.333,10.333,0,0,0,2.04-1.136.537.537,0,0,1,.312-.1h1.693a.537.537,0,0,1,.365.143l2.485,2.313a.535.535,0,0,1-.365.928" transform="translate(-5.421 0)" fill="#F15A29"></path>
      <path id="Path_19924" data-name="Path 19924" d="M38.067,21.47a.535.535,0,0,1-.363-.93c1.733-1.591,1.944-2.4,2.131-3.106a3.206,3.206,0,0,1,.9-1.68l.773-.772a.536.536,0,1,1,.757.757l-.773.772a2.168,2.168,0,0,0-.626,1.2c-.213.809-.478,1.818-2.443,3.622a.533.533,0,0,1-.362.141" transform="translate(-17.427 -6.884)" fill="#F15A29"></path>
      <path id="Path_19925" data-name="Path 19925" d="M31.812,24.675a2.072,2.072,0,0,1-1.282-.487c-.977-.836-3.953-3.685-4.08-3.807a.535.535,0,1,1,.741-.773c.031.029,3.081,2.95,4.017,3.751a.775.775,0,0,0,1.2-.068c.252-.306.349-.785.089-1.008-1.006-.867-4.35-4.374-4.491-4.523a.536.536,0,0,1,.776-.739c.034.036,3.447,3.617,4.415,4.45a1.8,1.8,0,0,1,.038,2.5,1.852,1.852,0,0,1-1.42.7" transform="translate(-12.206 -7.827)" fill="#F15A29"></path>
      <path id="Path_19926" data-name="Path 19926" d="M28.128,30.605a2.247,2.247,0,0,1-1.373-.5c-.983-.838-2.914-2.666-3-2.744a.535.535,0,1,1,.737-.777c.02.018,1.993,1.886,2.931,2.686a1.056,1.056,0,0,0,.932.235,2.252,2.252,0,0,0,1.218-1.227.536.536,0,1,1,.987.417,3.281,3.281,0,0,1-1.927,1.845,1.97,1.97,0,0,1-.507.067" transform="translate(-10.955 -12.275)" fill="#F15A29"></path>
      <path id="Path_19927" data-name="Path 19927" d="M24.548,34.044a2.261,2.261,0,0,1-1.406-.524,26.928,26.928,0,0,1-1.976-1.835.536.536,0,0,1,.765-.749c.011.012,1.147,1.17,1.874,1.743a1.12,1.12,0,0,0,.958.27,2.03,2.03,0,0,0,1.211-1.171.535.535,0,1,1,.96.475A3.023,3.023,0,0,1,25,33.993a2.058,2.058,0,0,1-.451.051" transform="translate(-9.757 -14.29)" fill="#F15A29"></path>
      <path id="Path_19928" data-name="Path 19928" d="M20.539,36.927a2,2,0,0,1-1.062-.306c-.561-.35-1.472-1-1.511-1.028a.536.536,0,0,1,.624-.872c.009.007.921.659,1.454.99a.941.941,0,0,0,.822.091,1.619,1.619,0,0,0,.951-.929.535.535,0,1,1,.994.4A2.676,2.676,0,0,1,21.2,36.82a2.127,2.127,0,0,1-.659.107" transform="translate(-8.238 -16.037)" fill="#F15A29"></path>
      <path id="Path_19929" data-name="Path 19929" d="M14.282,5.374a.534.534,0,0,1-.379-.157,3.632,3.632,0,0,0-1.429-.922,4.955,4.955,0,0,1-1.9-1.242L9.317,1.935a.536.536,0,0,1,.712-.8l1.282,1.139A3.951,3.951,0,0,0,12.875,3.3a4.687,4.687,0,0,1,1.785,1.158.536.536,0,0,1-.379.914" transform="translate(-4.243 -0.464)" fill="#F15A29"></path>
      <path id="Path_19930" data-name="Path 19930" d="M2.5,20.447a.534.534,0,0,1-.379-.157A3.243,3.243,0,0,1,1.1,17.775a2.731,2.731,0,0,0-.943-2.2.536.536,0,1,1,.757-.757A3.778,3.778,0,0,1,2.17,17.732a2.2,2.2,0,0,0,.71,1.8.536.536,0,0,1-.379.914" transform="translate(0 -6.806)" fill="#F15A29"></path>
      <path id="Path_19931" data-name="Path 19931" d="M2.764,27.436h-.03a1.746,1.746,0,0,1-1.189-3l.683-.655a1.79,1.79,0,0,1,1.238-.489,1.73,1.73,0,0,1,1.223.532l-.379.379.386-.372A1.748,1.748,0,0,1,4.655,26.3l-.676.648a1.736,1.736,0,0,1-1.215.491m.673-3.071a.663.663,0,0,0-.465.189l-.683.654a.676.676,0,0,0-.013.95.669.669,0,0,0,.477.207h.011a.675.675,0,0,0,.472-.191l.676-.648a.674.674,0,0,0,.014-.949l-.007-.007a.664.664,0,0,0-.47-.2Z" transform="translate(-0.472 -10.816)" fill="#F15A29"></path>
      <path id="Path_19932" data-name="Path 19932" d="M5.629,29.846H5.6a1.747,1.747,0,0,1-1.189-3l1.979-1.93a1.693,1.693,0,0,1,1.242-.491,1.728,1.728,0,0,1,1.222.531l.007.007a1.748,1.748,0,0,1-.042,2.464L6.847,29.351a1.737,1.737,0,0,1-1.218.495M7.6,25.495a.663.663,0,0,0-.465.189l-1.979,1.93a.675.675,0,0,0,.46,1.16h.012a.675.675,0,0,0,.472-.191l1.971-1.924a.677.677,0,0,0,.02-.951l0,0a.673.673,0,0,0-.477-.212Z" transform="translate(-1.802 -11.341)" fill="#F15A29"></path>
      <path id="Path_19933" data-name="Path 19933" d="M9.387,32.633H9.343a1.747,1.747,0,0,1-1.164-3.009l1.811-1.769a1.74,1.74,0,0,1,2.468.057l-.382.375.388-.369a1.748,1.748,0,0,1-.061,2.465l-1.8,1.762a1.74,1.74,0,0,1-1.212.489m1.807-4.193a.661.661,0,0,0-.461.185L8.923,30.394a.675.675,0,0,0,.447,1.168.656.656,0,0,0,.485-.187l1.8-1.762a.678.678,0,0,0,.032-.953h0a.674.674,0,0,0-.478-.218Z" transform="translate(-3.547 -12.709)" fill="#F15A29"></path>
      <path id="Path_19934" data-name="Path 19934" d="M14.13,35.465h-.02A1.747,1.747,0,0,1,12.9,32.472l.468-.454a1.729,1.729,0,0,1,1.216-.5h.02a1.73,1.73,0,0,1,1.226.525l-.377.381.383-.374a1.748,1.748,0,0,1-.027,2.465l-.462.447a1.734,1.734,0,0,1-1.221.5m.458-2.871a.668.668,0,0,0-.468.191l-.468.454a.675.675,0,0,0,.47,1.154h.007A.674.674,0,0,0,14.6,34.2l.462-.447a.674.674,0,0,0,.01-.948l0,0a.669.669,0,0,0-.476-.207Z" transform="translate(-5.749 -14.638)" fill="#F15A29"></path>
      <path id="Path_19935" data-name="Path 19935" d="M31.6,18.65a3.144,3.144,0,0,1-1.907-.658l-.229-.146a.536.536,0,1,1,.568-.908l.241.153a2.3,2.3,0,0,0,2.2.385.536.536,0,0,1,.216,1.049,5.455,5.455,0,0,1-1.092.125" transform="translate(-13.567 -7.827)" fill="#F15A29"></path>
    </g>
  </g>
</svg>