<svg xmlns:xlink="http://www.w3.org/1999/xlink" xmlns="http://www.w3.org/2000/svg" width="24.946" height="24.946" viewBox="0 0 24.946 24.946">
  <g id="Group_19362" data-name="Group 19362" transform="translate(-17271.648 5694.227)">
    <path id="Path_7213" data-name="Path 7213" d="M21.773,24.348a2.576,2.576,0,0,0,2.06-4.121L15.591,7.864V3.743l2.06-1.476V.652H7.349V2.267l2.06,1.476V7.864L1.167,20.227a2.576,2.576,0,0,0,2.06,4.121Zm0-7.212c-2.061,1.546-3.606,2.576-6.182,2.576-4.636,0-5.152-3.091-11.848-3.091M12.5,11.985a1.031,1.031,0,1,1-1.03-1.03A1.03,1.03,0,0,1,12.5,11.985Zm1.545,3.091a1.545,1.545,0,1,0,1.546-1.546A1.546,1.546,0,0,0,14.045,15.076Z" transform="translate(17271.621 -5694.254)" fill="none" stroke="#F15A29" stroke-linecap="round" stroke-linejoin="round" stroke-width="1.25px"></path>
    <line id="Line_225" data-name="Line 225" x1="3.606" transform="translate(17283.607 -5690.512)" fill="none" stroke="#F15A29" stroke-linecap="round" stroke-linejoin="round" stroke-width="1.25px"></line>
    <line id="Line_226" data-name="Line 226" x1="1.545" transform="translate(17281.031 -5690.512)" fill="none" stroke="#F15A29" stroke-linecap="round" stroke-linejoin="round" stroke-width="1.25px"></line>
  </g>
</svg>