<svg xmlns:xlink="http://www.w3.org/1999/xlink" xmlns="http://www.w3.org/2000/svg" width="24.942" height="24.942" viewBox="0 0 24.942 24.942">
  <g id="Group_19374" data-name="Group 19374" transform="translate(-17179.875 4769.556)">
    <path id="Path_7175" data-name="Path 7175" d="M8.38,5.8H3.815A1.617,1.617,0,0,0,2.2,7.42V20.225" transform="translate(17179.846 -4769.585)" fill="none" stroke="#F15A29" stroke-linecap="round" stroke-linejoin="round" stroke-width="1.25px"></path>
    <line id="Line_207" data-name="Line 207" y1="6.695" transform="translate(17202.646 -4756.055)" fill="none" stroke="#F15A29" stroke-linecap="round" stroke-linejoin="round" stroke-width="1.25px"></line>
    <path id="Path_7176" data-name="Path 7176" d="M.654,21.77A2.576,2.576,0,0,0,3.23,24.346H21.77a2.576,2.576,0,0,0,2.576-2.576H15.075l-.515.515H10.44l-.515-.515Z" transform="translate(17179.846 -4769.585)" fill="none" stroke="#F15A29" stroke-linecap="round" stroke-linejoin="round" stroke-width="1.25px"></path>
    <line id="Line_208" data-name="Line 208" x2="4.12" transform="translate(17192.861 -4764.811)" fill="none" stroke="#F15A29" stroke-linecap="round" stroke-linejoin="round" stroke-width="1.25px"></line>
    <line id="Line_209" data-name="Line 209" x2="8.24" transform="translate(17192.861 -4761.72)" fill="none" stroke="#F15A29" stroke-linecap="round" stroke-linejoin="round" stroke-width="1.25px"></line>
    <path id="Path_7177" data-name="Path 7177" d="M9.925,10.44a1.5,1.5,0,0,0,1.545,1.545h1.545L12.5,16.1l5.665-4.12H22.8a1.5,1.5,0,0,0,1.545-1.545V2.2A1.5,1.5,0,0,0,22.8.654H11.47A1.5,1.5,0,0,0,9.925,2.2Z" transform="translate(17179.846 -4769.585)" fill="none" stroke="#F15A29" stroke-linecap="round" stroke-linejoin="round" stroke-width="1.25px"></path>
  </g>
</svg>