<?xml version="1.0" encoding="utf-8"?>
<!-- Generator: Adobe Illustrator 25.0.0, SVG Export Plug-In . SVG Version: 6.00 Build 0)  -->
<svg version="1.1" id="Layer_1" xmlns="http://www.w3.org/2000/svg" xmlns:xlink="http://www.w3.org/1999/xlink" x="0px" y="0px"
	 viewBox="0 0 1280 1024" style="enable-background:new 0 0 1280 1024;" xml:space="preserve">
<style type="text/css">
	.st0{fill:none;stroke:#EF5120;stroke-width:19;stroke-linejoin:round;}
	.st1{fill:none;stroke:#EF5120;stroke-width:19;stroke-linecap:round;stroke-linejoin:round;}
</style>
<g>
	<ellipse class="st0" cx="640" cy="297.28" rx="62.52" ry="57.26"/>
	<ellipse class="st0" cx="858.83" cy="297.28" rx="62.52" ry="57.26"/>
	<path class="st1" d="M936.98,469.06v357.87c0,7.91-7,14.31-15.63,14.31H796.3c-8.63,0-15.63-6.41-15.63-14.31v-71.57"/>
	<line class="st1" x1="858.83" y1="626.52" x2="858.83" y2="841.24"/>
	<ellipse class="st0" cx="421.17" cy="297.28" rx="62.52" ry="57.26"/>
	<path class="st1" d="M499.33,755.35v71.57c0,7.91-7,14.31-15.63,14.31H358.65c-8.63,0-15.63-6.41-15.63-14.31V469.06"/>
	<line class="st1" x1="421.17" y1="626.52" x2="421.17" y2="841.24"/>
	<line class="st1" x1="640" y1="698.09" x2="640" y2="898.5"/>
	<line class="st1" x1="694.71" y1="196.18" x2="725.97" y2="146.6"/>
	<line class="st1" x1="734.75" y1="232.86" x2="788.9" y2="204.23"/>
	<line class="st1" x1="491.1" y1="204.23" x2="545.25" y2="232.86"/>
	<line class="st1" x1="554.03" y1="146.6" x2="585.29" y2="196.18"/>
	<line class="st1" x1="640" y1="125.5" x2="640" y2="182.76"/>
	<path class="st1" d="M640,440.43"/>
	<path class="st1" d="M561.85,483.37l-62.52,214.72h62.52v186.09c0,7.91,7,14.31,15.63,14.31h125.04c8.63,0,15.63-6.41,15.63-14.31
		V698.09h62.52l-62.52-214.72"/>
	<path class="st1" d="M765.28,645.22l3.89-1.23c31.93-9.75,49.71-40.9,40.21-70.48l-46.97-149.09
		c-7.7-24.43-32.12-41.26-59.89-41.26l0,0L640,454.74l-62.52-71.57l0,0c-27.77,0-52.19,16.83-59.89,41.26l-46.97,149.08
		c-9.5,29.58,8.28,60.73,40.21,70.48l3.89,1.23"/>
	<path class="st0" d="M936.98,626.52c34.53,0,62.52-25.64,62.52-57.26v-118.7c0-23.41-15.56-44.47-39.3-53.16l-38.85-14.23
		l-62.52,57.26l-62.52-57.26l-38.85,14.23c-3.22,1.18-6.26,2.63-9.16,4.23"/>
	<path class="st0" d="M343.02,626.52c-34.53,0-62.52-25.64-62.52-57.26v-118.7c0-23.41,15.56-44.47,39.3-53.16l38.85-14.23
		l62.52,57.26l62.52-57.26l38.85,14.23c3.22,1.18,6.26,2.63,9.16,4.23"/>
</g>
</svg>
