<?xml version="1.0" encoding="utf-8"?>
<!-- Generator: Adobe Illustrator 25.0.0, SVG Export Plug-In . SVG Version: 6.00 Build 0)  -->
<svg version="1.1" id="Layer_1" xmlns="http://www.w3.org/2000/svg" xmlns:xlink="http://www.w3.org/1999/xlink" x="0px" y="0px"
	 viewBox="0 0 1280 1024" style="enable-background:new 0 0 1280 1024;" xml:space="preserve">
<style type="text/css">
	.st0{fill:#F15A24;}
</style>
<path class="st0" d="M356.6,358.96c154.49-15.6,268.34,13.52,269.47,13.82c1.36,0.36,2.74,0.53,4.12,0.53c3.76,0,7.4-1.28,9.91-3.61
	c3.43-3.19,4.04-7.71,1.53-11.38c-35.39-52.01-79-80.32-129.6-84.11c-88.73-6.64-163.97,65.17-167.13,68.24
	c-3.33,3.24-3.83,7.74-1.25,11.38C346.19,357.45,351.31,359.48,356.6,358.96z M509.61,294.5c34.47,2.6,65.68,20.16,93.06,52.28
	c-31.65-5.68-85.26-12.89-153.13-12.89c-19.06,0-39.26,0.57-60.39,1.9C415.88,316.66,461.56,290.85,509.61,294.5z"/>
<path class="st0" d="M954.66,878.41c-0.02-0.18-0.02-0.36-0.04-0.54c0-0.02,0-0.03,0-0.05c-2.43-18.04-5.9-36.91-10.58-57.7
	c-3.35-14.83-7.22-29.87-11.52-44.84c0.06-0.02,0.11-0.05,0.19-0.06c0.25-0.08,0.48-0.15,0.73-0.23c0.17-0.06,0.34-0.14,0.54-0.21
	c0.19-0.08,0.4-0.15,0.59-0.24c0.19-0.09,0.38-0.18,0.57-0.29c0.15-0.09,0.33-0.17,0.48-0.26c0.19-0.11,0.38-0.23,0.57-0.35
	c0.13-0.09,0.29-0.17,0.42-0.26c0.17-0.12,0.34-0.26,0.52-0.39c0.13-0.09,0.25-0.2,0.38-0.29c0.15-0.14,0.31-0.27,0.44-0.41
	c0.11-0.12,0.25-0.23,0.36-0.35c0.13-0.14,0.25-0.27,0.36-0.41c0.11-0.14,0.25-0.27,0.36-0.41c0.1-0.12,0.19-0.26,0.29-0.39
	c0.11-0.15,0.23-0.32,0.33-0.47c0.08-0.12,0.15-0.26,0.23-0.38c0.1-0.17,0.19-0.35,0.29-0.53c0.06-0.14,0.11-0.26,0.17-0.39
	c0.08-0.18,0.15-0.36,0.23-0.54c0.06-0.15,0.1-0.29,0.13-0.44c0.06-0.18,0.11-0.35,0.15-0.53c0.04-0.17,0.06-0.33,0.1-0.51
	c0.02-0.17,0.06-0.32,0.08-0.48c0.02-0.2,0.02-0.39,0.02-0.59c0-0.14,0.02-0.29,0.02-0.42c0-0.2-0.04-0.41-0.06-0.62
	c-0.02-0.12-0.02-0.26-0.04-0.38c0-0.02,0-0.03-0.02-0.05c-0.02-0.15-0.06-0.32-0.1-0.47c-0.04-0.2-0.08-0.39-0.13-0.59
	c0-0.02,0-0.03,0-0.03c-9.01-30.15-20.02-60.26-32.8-89.68c0.13-0.06,0.25-0.14,0.38-0.2c0.21-0.11,0.4-0.21,0.59-0.32
	c0.17-0.09,0.33-0.21,0.48-0.3c0.17-0.11,0.33-0.21,0.48-0.32c0.17-0.12,0.33-0.24,0.48-0.36c0.13-0.11,0.29-0.21,0.4-0.33
	c0.15-0.14,0.29-0.27,0.44-0.41c0.11-0.12,0.25-0.23,0.36-0.35c0.13-0.14,0.25-0.29,0.36-0.42c0.11-0.14,0.23-0.26,0.33-0.39
	s0.19-0.27,0.29-0.42c0.1-0.15,0.21-0.3,0.31-0.45c0.08-0.14,0.15-0.27,0.23-0.41c0.1-0.17,0.19-0.33,0.27-0.5
	c0.06-0.14,0.11-0.27,0.17-0.41c0.08-0.18,0.15-0.36,0.21-0.54c0.04-0.14,0.08-0.27,0.11-0.42c0.06-0.18,0.1-0.36,0.13-0.54
	c0.04-0.15,0.06-0.32,0.08-0.47c0.02-0.17,0.06-0.35,0.08-0.51c0.02-0.18,0.02-0.36,0.02-0.54c0-0.15,0.02-0.3,0-0.45
	c0-0.21-0.04-0.41-0.06-0.62c-0.02-0.14-0.02-0.26-0.04-0.39c-0.04-0.21-0.1-0.42-0.13-0.63c-0.04-0.12-0.04-0.23-0.08-0.35
	c0-0.02-0.02-0.03-0.02-0.05c-0.06-0.17-0.11-0.32-0.17-0.48c-0.08-0.18-0.13-0.36-0.21-0.54c0-0.02-0.02-0.03-0.02-0.05
	c-12.59-27.77-26.9-54.55-42.61-79.79c0.1-0.08,0.21-0.14,0.31-0.21c0.17-0.12,0.33-0.26,0.48-0.39c0.13-0.11,0.27-0.21,0.38-0.33
	c0.15-0.15,0.31-0.3,0.46-0.45c0.1-0.11,0.21-0.21,0.31-0.32c0.15-0.17,0.27-0.33,0.4-0.5c0.1-0.11,0.19-0.23,0.27-0.33
	c0.11-0.17,0.23-0.33,0.33-0.5c0.08-0.12,0.17-0.26,0.23-0.38c0.1-0.15,0.17-0.32,0.25-0.48c0.08-0.15,0.15-0.29,0.21-0.44
	c0.06-0.15,0.11-0.3,0.17-0.45c0.06-0.17,0.11-0.33,0.17-0.5c0.04-0.15,0.08-0.29,0.11-0.44c0.04-0.18,0.1-0.35,0.11-0.53
	c0.02-0.15,0.04-0.3,0.06-0.45c0.02-0.18,0.04-0.36,0.06-0.53c0-0.17,0-0.32,0-0.48c0-0.17,0-0.33-0.02-0.5
	c-0.02-0.18-0.04-0.38-0.08-0.56c-0.02-0.15-0.04-0.29-0.06-0.44c-0.04-0.21-0.11-0.42-0.17-0.63c-0.04-0.12-0.06-0.24-0.1-0.36
	c-0.08-0.21-0.17-0.44-0.27-0.65c-0.04-0.11-0.08-0.2-0.11-0.3c0-0.02-0.02-0.03-0.02-0.05c-0.08-0.17-0.19-0.33-0.29-0.51
	c-0.1-0.15-0.17-0.32-0.27-0.47c0-0.02-0.02-0.03-0.02-0.05c-15.94-24.66-33.36-47.79-51.89-68.93c0.06-0.06,0.1-0.12,0.15-0.18
	c0.11-0.14,0.23-0.26,0.34-0.39c0.11-0.15,0.23-0.32,0.34-0.48c0.1-0.12,0.19-0.26,0.27-0.38c0.1-0.17,0.19-0.33,0.29-0.51
	c0.08-0.14,0.15-0.26,0.21-0.39c0.08-0.17,0.15-0.33,0.21-0.5c0.06-0.15,0.11-0.29,0.17-0.44c0.06-0.17,0.1-0.32,0.13-0.48
	c0.04-0.17,0.1-0.32,0.13-0.48c0.04-0.15,0.06-0.3,0.08-0.45c0.02-0.18,0.06-0.35,0.08-0.53c0.02-0.15,0.02-0.29,0.02-0.44
	c0-0.18,0.02-0.36,0.02-0.56c0-0.15-0.02-0.29-0.04-0.44c-0.02-0.18-0.02-0.36-0.06-0.54c-0.02-0.17-0.06-0.32-0.1-0.48
	c-0.04-0.17-0.06-0.33-0.11-0.48c-0.06-0.18-0.11-0.38-0.19-0.56c-0.04-0.14-0.1-0.27-0.13-0.39c-0.1-0.21-0.19-0.42-0.31-0.63
	c-0.06-0.11-0.1-0.21-0.15-0.32c-0.11-0.21-0.27-0.42-0.4-0.63c-0.06-0.09-0.1-0.18-0.17-0.26c0-0.02-0.02-0.02-0.02-0.03
	c-0.11-0.15-0.25-0.3-0.36-0.47c-0.11-0.15-0.23-0.3-0.36-0.44c-0.02-0.02-0.02-0.02-0.02-0.03
	c-21.94-24.02-45.79-45.79-70.93-64.72c-3.33-2.51-7.95-3.34-12.13-2.53c-2.09,0.33-4.12,1.07-5.86,2.23l-48.53,32.43
	c-0.44,0.17-0.86,0.35-1.28,0.56c-2.24,1.11-3.89,2.68-4.89,4.46c-2.51,3.6-2.11,8.19,1.48,11.52c0.65,0.6,1.38,1.13,2.15,1.58
	c14.26,18.11,26.98,38.02,37.84,59.27c0.02,0.03,0.04,0.06,0.06,0.09c0.19,0.38,0.42,0.74,0.67,1.1c0.02,0.05,0.06,0.08,0.1,0.11
	c0.13,0.2,0.31,0.36,0.46,0.54c0.19,0.23,0.38,0.47,0.61,0.68c0.17,0.17,0.34,0.33,0.54,0.48c0.23,0.21,0.48,0.41,0.73,0.6
	c0.19,0.14,0.38,0.27,0.57,0.39c0.27,0.18,0.56,0.36,0.86,0.53c0.19,0.11,0.4,0.21,0.61,0.32c0.31,0.15,0.63,0.29,0.96,0.42
	c0.21,0.09,0.42,0.17,0.65,0.24c0.34,0.12,0.69,0.21,1.03,0.32c0.23,0.06,0.44,0.12,0.67,0.18c0.38,0.09,0.75,0.15,1.13,0.2
	c0.21,0.03,0.42,0.08,0.63,0.11c0.56,0.06,1.11,0.09,1.67,0.09c0.04,0,0.1,0.02,0.13,0.02c0.15,0,0.29-0.02,0.44-0.02
	c9.56,20,17.78,41.41,24.45,63.84c0.02,0.05,0.04,0.08,0.04,0.12c0.04,0.14,0.1,0.26,0.13,0.38c0.08,0.2,0.15,0.39,0.23,0.59
	c0.02,0.05,0.04,0.11,0.06,0.15c0.02,0.03,0.04,0.06,0.06,0.11c0.21,0.45,0.48,0.89,0.77,1.29c0.04,0.06,0.08,0.11,0.11,0.17
	c0.31,0.41,0.63,0.8,1,1.17c0.04,0.05,0.08,0.08,0.13,0.12c0.36,0.36,0.77,0.69,1.19,1.01c0.02,0.02,0.04,0.03,0.06,0.06
	c0.44,0.32,0.9,0.6,1.38,0.86c0.06,0.03,0.13,0.08,0.19,0.11c0.48,0.26,0.96,0.47,1.48,0.66c0.08,0.03,0.15,0.06,0.25,0.09
	c0.52,0.2,1.03,0.36,1.59,0.5c0.08,0.02,0.15,0.03,0.23,0.06c0.56,0.14,1.13,0.24,1.71,0.3c0.06,0.02,0.11,0.02,0.19,0.02
	c0.38,0.05,0.77,0.08,1.15,0.09c6.51,23.69,11.48,48.38,14.77,73.6c0,0.03,0.02,0.08,0.02,0.11c0.02,0.15,0.06,0.32,0.1,0.47
	c0.04,0.18,0.08,0.38,0.13,0.56c0.02,0.05,0.02,0.09,0.04,0.14c0.04,0.11,0.08,0.21,0.11,0.32c0.06,0.15,0.1,0.3,0.15,0.45
	c0.06,0.15,0.13,0.29,0.19,0.44c0.06,0.14,0.13,0.29,0.19,0.42c0.08,0.17,0.17,0.32,0.27,0.47c0.08,0.12,0.13,0.23,0.21,0.35
	c0.13,0.21,0.29,0.41,0.44,0.6c0.04,0.05,0.08,0.11,0.11,0.15c0.42,0.51,0.88,0.98,1.4,1.42c0.06,0.05,0.13,0.11,0.19,0.15
	c0.19,0.17,0.4,0.32,0.61,0.47c0.1,0.08,0.19,0.14,0.31,0.2c0.19,0.12,0.36,0.24,0.56,0.36c0.11,0.08,0.25,0.14,0.38,0.21
	c0.17,0.11,0.34,0.2,0.54,0.29c0.15,0.08,0.29,0.14,0.44,0.21c0.17,0.08,0.34,0.15,0.52,0.23c0.15,0.06,0.33,0.12,0.48,0.18
	c0.17,0.06,0.36,0.12,0.54,0.18s0.33,0.11,0.5,0.15c0.19,0.06,0.38,0.11,0.57,0.15c0.17,0.05,0.33,0.08,0.5,0.12
	c0.21,0.05,0.44,0.09,0.65,0.12c0.15,0.03,0.29,0.06,0.44,0.08c0.25,0.03,0.52,0.06,0.79,0.09c3.05,27.37,4.43,54.93,4.1,82.09
	c0,0.05,0,0.08,0,0.12c0,0.18,0.02,0.35,0.02,0.53c0.02,0.18,0.02,0.36,0.04,0.54c0,0.03,0,0.08,0,0.11
	c0.02,0.12,0.06,0.24,0.08,0.36c0.04,0.17,0.06,0.35,0.11,0.51c0.04,0.15,0.1,0.3,0.13,0.45c0.06,0.17,0.1,0.33,0.17,0.48
	c0.08,0.18,0.15,0.35,0.23,0.53c0.06,0.12,0.11,0.26,0.17,0.38c0.15,0.29,0.33,0.57,0.52,0.84c0,0,0,0,0,0.02
	c0.19,0.29,0.4,0.57,0.63,0.83c0.04,0.05,0.08,0.08,0.11,0.12c0.19,0.23,0.38,0.44,0.59,0.65c0.08,0.08,0.17,0.15,0.25,0.23
	c0.17,0.17,0.34,0.32,0.54,0.47c0.11,0.09,0.23,0.18,0.36,0.27c0.17,0.12,0.33,0.26,0.52,0.38c0.13,0.09,0.29,0.18,0.44,0.27
	c0.17,0.11,0.33,0.21,0.5,0.3c0.15,0.09,0.33,0.18,0.5,0.26c0.17,0.09,0.34,0.17,0.52,0.26c0.17,0.08,0.34,0.15,0.54,0.23
	c0.17,0.08,0.36,0.15,0.56,0.21c0.17,0.06,0.36,0.12,0.54,0.18c0.21,0.06,0.4,0.12,0.61,0.18c0.17,0.05,0.34,0.09,0.52,0.14
	c0.23,0.06,0.48,0.11,0.71,0.15c0.15,0.03,0.31,0.06,0.46,0.09c0.25,0.05,0.5,0.08,0.75,0.09c-0.34,13.46-1.03,26.86-2.13,39.99
	c-1.49,18.28-3.58,35.22-6.21,50.34c0,0.05,0,0.08-0.02,0.12c-0.02,0.18-0.04,0.36-0.06,0.54c-0.02,0.18-0.04,0.35-0.04,0.53
	c0,0.05,0,0.09,0,0.12c0,0.11,0.02,0.21,0.02,0.32c0,0.2,0.02,0.41,0.04,0.6c0.02,0.15,0.04,0.29,0.06,0.42
	c0.04,0.2,0.06,0.39,0.11,0.57c0.04,0.15,0.08,0.3,0.13,0.45c0.06,0.17,0.1,0.35,0.17,0.51c0.06,0.17,0.13,0.32,0.19,0.48
	c0.06,0.15,0.13,0.3,0.21,0.45c0.08,0.17,0.17,0.33,0.27,0.48c0.08,0.14,0.15,0.27,0.25,0.41c0.1,0.17,0.21,0.32,0.33,0.47
	c0.1,0.14,0.19,0.26,0.29,0.39c0.11,0.15,0.25,0.29,0.38,0.44c0.11,0.12,0.23,0.26,0.34,0.38c0.13,0.14,0.27,0.26,0.4,0.38
	c0.13,0.12,0.27,0.24,0.42,0.36c0.13,0.12,0.29,0.23,0.42,0.33c0.15,0.12,0.33,0.24,0.48,0.35s0.29,0.2,0.44,0.29
	c0.17,0.11,0.36,0.23,0.54,0.32c0.15,0.09,0.33,0.17,0.48,0.26c0.19,0.09,0.36,0.18,0.57,0.27c0.17,0.08,0.36,0.15,0.56,0.23
	c0.19,0.08,0.36,0.15,0.56,0.21c0.21,0.08,0.42,0.14,0.63,0.2c0.17,0.06,0.36,0.11,0.54,0.15c0.23,0.06,0.48,0.12,0.73,0.17
	c0.17,0.03,0.34,0.08,0.52,0.11c0.25,0.05,0.52,0.08,0.77,0.12c0.13,0.02,0.25,0.05,0.38,0.06c0.04,0,0.08,0,0.11,0
	c0.52,0.05,1.02,0.09,1.55,0.09h0.08h0.02h0.02l127.2,0.63h0.06h0.02h0.02l0,0c0.46,0,0.92-0.02,1.36-0.06c0,0,0,0,0.02,0
	c0.08,0,0.13-0.02,0.21-0.03c0.36-0.03,0.73-0.08,1.07-0.14c0.1-0.02,0.19-0.05,0.31-0.06c0.33-0.06,0.63-0.12,0.94-0.2
	c0.15-0.05,0.31-0.09,0.48-0.14c0.23-0.06,0.48-0.14,0.71-0.21c0.19-0.06,0.38-0.15,0.59-0.23c0.17-0.08,0.36-0.14,0.54-0.21
	c0.21-0.09,0.4-0.2,0.61-0.29c0.15-0.08,0.31-0.14,0.46-0.23c0.19-0.11,0.38-0.23,0.57-0.33c0.13-0.09,0.29-0.17,0.42-0.26
	c0.17-0.12,0.34-0.24,0.52-0.36c0.13-0.11,0.27-0.2,0.4-0.3c0.15-0.12,0.29-0.24,0.44-0.38c0.13-0.12,0.27-0.24,0.4-0.36
	c0.11-0.12,0.23-0.24,0.34-0.36c0.13-0.14,0.27-0.27,0.38-0.42c0.1-0.12,0.19-0.26,0.29-0.38c0.11-0.15,0.25-0.3,0.34-0.47
	c0.1-0.14,0.17-0.27,0.25-0.39c0.1-0.17,0.21-0.32,0.29-0.48c0.08-0.15,0.15-0.3,0.21-0.45c0.08-0.15,0.15-0.3,0.21-0.47
	c0.08-0.18,0.11-0.36,0.19-0.54c0.04-0.14,0.1-0.27,0.13-0.42c0.06-0.21,0.1-0.42,0.13-0.63c0.02-0.12,0.06-0.24,0.08-0.36
	c0.04-0.21,0.04-0.44,0.04-0.66c0-0.11,0.02-0.23,0.02-0.33c0-0.02,0-0.03,0-0.05C954.68,878.76,954.66,878.58,954.66,878.41z
	 M707.11,467.72l33.93-22.68c17.8,14.03,34.91,29.59,51.04,46.41l-54.07,23.81C728.78,498.5,718.45,482.57,707.11,467.72z
	 M778.56,587.82c-0.1,0-0.17,0-0.27,0c-6.44-19.86-14.06-38.94-22.76-56.89l44.18-19.45c15.52,17.65,30.27,36.77,44.01,57.08
	c-0.11,0.08-0.23,0.17-0.33,0.26L778.56,587.82z M809.94,671.19c-0.84-0.21-1.72-0.35-2.61-0.42c-3.41-22.41-8.12-44.34-14.03-65.52
	l53.42-15.66c13.35,21.35,25.69,43.86,36.79,67.17c-0.8,0.41-1.53,0.87-2.2,1.39L809.94,671.19z M824.71,764.97
	c-0.13-24.8-1.65-49.84-4.5-74.72l62.46-11.41c11.19,25.61,21.02,51.78,29.3,78.03c-0.1,0.03-0.21,0.06-0.31,0.09l-86.74,8.03
	C824.85,764.99,824.79,764.97,824.71,764.97z M829.08,868.16c1.86-12.51,3.37-26,4.56-40.28c1.17-14.23,1.9-28.78,2.2-43.35
	l70.83-6.55c4.41,15.27,8.39,30.6,11.8,45.73c3.6,15.99,6.46,30.79,8.66,44.95L829.08,868.16z"/>
<path class="st0" d="M677.47,421.21c-2.49-11.07-10.31-20.7-22.01-27.15c-11.71-6.44-25.92-8.91-39.99-6.97
	c-14.08,1.96-26.34,8.1-34.55,17.3c-5.58,6.25-8.81,13.42-9.52,20.84c-51.44,2.08-89.99,16.13-114.67,41.85
	c-52.19,54.4-21.73,140.35-20.41,143.98c1.46,4.01,5.88,6.91,11.15,7.33c0.44,0.03,0.88,0.06,1.32,0.06c4.79,0,9.24-2.08,11.48-5.47
	c62.31-93.37,129-134.49,147.4-144.63c5.46,1.45,11.17,2.21,16.98,2.21c3.12,0,6.27-0.21,9.41-0.65c14.08-1.96,26.34-8.1,34.55-17.3
	C676.8,443.45,679.94,432.27,677.47,421.21z M454.77,578.72c-4.54-27.4-5.5-70.05,22.72-99.41c20.29-21.11,53.32-32.46,98.27-33.82
	c2.2,3.96,5.17,7.6,8.81,10.84C559.75,471.15,507.46,507.83,454.77,578.72z M647.35,440.95c-4.22,4.74-10.54,7.91-17.8,8.91
	c-7.24,1.01-14.56-0.27-20.6-3.58c-12.45-6.85-15.5-20.39-6.76-30.18c4.22-4.74,10.54-7.91,17.8-8.91c1.61-0.23,3.24-0.33,4.85-0.33
	c5.61,0,11.07,1.34,15.75,3.93C653.02,417.62,656.07,431.16,647.35,440.95z"/>
<path class="st0" d="M898.65,368.29c-40.52-5.36-81.91,9.43-123.05,43.94c-3.62,3.04-4.52,7.53-2.28,11.29
	c2.26,3.78,7.2,6.1,12.51,5.84c0.92-0.05,94.71-3.92,207.69,32.54c1.59,0.51,3.28,0.77,4.92,0.77c3.45,0,6.82-1.08,9.31-3.1
	c3.7-3,4.69-7.45,2.55-11.25C1008.67,445.45,969.45,377.64,898.65,368.29z M817.36,409.27c26.67-17.08,52.46-24.09,76.91-20.88
	c33.24,4.37,58.97,26.61,74.74,44.53C904.98,415.79,850.27,410.67,817.36,409.27z"/>
<path class="st0" d="M1068.7,248c-5.1-2.39-125.79-58.42-225.69-28.13c-46.42,14.08-80.24,44.31-100.67,89.91
	c-9.45-1.94-19.26-2.17-28.68-0.77c5.71-96.97,41-162.08,41.37-162.76c2.13-3.82,1.05-8.28-2.7-11.25
	c-3.74-2.97-9.41-3.82-14.29-2.18c-66.08,22.18-105.65,52.13-117.6,89.02c-15.27,47.12,18.99,93.75,44.13,120.05
	c-9.68,21.16-0.65,45.67,23.89,59.18c11.32,6.23,24.33,9.23,37.21,9.23c20.52,0,40.73-7.59,53.38-21.77
	c9.48-10.66,13.07-23.19,11.29-35.19c49.78-24.03,145.98-63.92,274.54-86.64c5.17-0.92,9.12-4.22,9.96-8.33
	C1075.69,254.25,1073.26,250.15,1068.7,248z M679.46,323.32c-21.19-23.79-45.45-60.74-33.87-96.43
	c8.14-25.13,33.15-46.8,74.47-64.61c-12.15,29.62-30.14,84.68-32.78,155.74C684.54,319.6,681.91,321.37,679.46,323.32z
	 M757.79,376.83c-12.36,13.88-36.79,17.26-54.45,7.54c-17.67-9.71-21.96-28.91-9.6-42.79c11.46-12.86,33.26-16.7,50.45-9.47
	c0.04,0.02,0.1,0.03,0.13,0.06c1.32,0.56,2.61,1.17,3.87,1.87C765.85,343.76,770.15,362.96,757.79,376.83z M781.93,333.48
	c-4.06-5.48-9.45-10.45-16.15-14.56c17.72-41.02,46.79-67.92,86.51-79.99c60.1-18.26,132.32,0.56,172.4,14.5
	C913.94,276.47,829.71,310.83,781.93,333.48z"/>
</svg>
